<svg width="32" height="30" viewBox="0 0 32 30" fill="none" xmlns="http://www.w3.org/2000/svg">
<path d="M15.6581 1.88033C15.219 1.09914 14.145 -0.122152 11.6409 0.020882C10.3711 0.114404 7.34483 1.43472 7.70085 4.44394C8.09249 7.76123 11.6172 9.92325 13.9847 12.5144C14.2577 12.8114 13.8186 13.224 13.4922 12.971C10.6915 10.7925 8.34171 7.53018 4.76956 7.17809C1.52377 6.85902 0.11153 9.67019 0.0106557 10.8475C-0.131755 13.169 1.18555 14.1593 2.03408 14.5664C1.18555 14.968 -0.125822 15.9692 0.0284564 18.2908C0.129331 19.4625 1.55344 22.2737 4.79923 21.9381C8.37731 21.575 10.7034 18.3073 13.4982 16.1122C13.8245 15.8592 14.2636 16.2608 13.9907 16.5688C11.635 19.1655 8.12215 21.3385 7.74239 24.6558C7.39823 27.665 10.4304 28.9743 11.7002 29.0678C14.2043 29.2054 15.2724 27.9841 15.7055 27.1974C16.1446 27.9786 17.2187 29.1999 19.7227 29.0568C20.9926 28.9633 24.0188 27.643 23.6628 24.6338C23.2711 21.322 19.7405 19.1545 17.3789 16.5688C17.1059 16.2663 17.545 15.8592 17.8714 16.1122C20.6721 18.2908 23.016 21.553 26.5941 21.9051C29.8398 22.2242 31.2521 19.413 31.353 18.2357C31.4954 15.9142 30.1781 14.9239 29.3295 14.5223C30.1781 14.1153 31.4894 13.1195 31.3352 10.798C31.2343 9.62068 29.8102 6.81501 26.5644 7.14509C22.9922 7.50817 20.6543 10.776 17.8654 12.9655C17.5391 13.224 17.1 12.8169 17.3729 12.5089C19.7227 9.91225 23.2415 7.73923 23.6212 4.42193C23.9654 1.41271 20.9332 0.103401 19.6634 0.00987911C17.1593 -0.122152 16.0912 1.09914 15.6581 1.88583V1.88033Z" fill="#255E17"/>
</svg>
