<svg width="32" height="30" viewBox="0 0 57 57" fill="none" xmlns="http://www.w3.org/2000/svg">
<path d="M28.1845 3.65057C27.3942 2.13393 25.4609 -0.237153 20.9536 0.0405414C18.6679 0.222111 13.2207 2.78544 13.8615 8.6277C14.5665 15.0681 20.9109 19.2655 25.1726 24.296C25.6639 24.8728 24.8735 25.6738 24.286 25.1825C19.2447 20.953 15.0151 14.6195 8.58521 13.9359C2.74279 13.3165 0.200755 18.7742 0.0191804 21.0598C-0.23716 25.567 2.13399 27.4895 3.66135 28.2799C2.13399 29.0596 -0.22648 31.0034 0.0512216 35.5106C0.232796 37.7856 2.7962 43.2433 8.63862 42.5918C15.0792 41.8869 19.266 35.5427 24.2967 31.2811C24.8842 30.7898 25.6746 31.5695 25.1832 32.1676C20.9429 37.2088 14.6199 41.4276 13.9363 47.868C13.3168 53.7103 18.7747 56.2522 21.0604 56.4338C25.5677 56.7008 27.4903 54.3297 28.27 52.8024C29.0604 54.319 30.9936 56.6901 35.5009 56.4124C37.7866 56.2309 43.2338 53.6675 42.593 47.8253C41.8881 41.3956 35.533 37.1875 31.282 32.1676C30.7907 31.5802 31.5811 30.7898 32.1685 31.2811C37.2099 35.5106 41.4288 41.8442 47.8693 42.5277C53.7118 43.1472 56.2538 37.6894 56.4354 35.4038C56.6917 30.8966 54.3206 28.9741 52.7932 28.1944C54.3206 27.4041 56.681 25.4709 56.4033 20.9637C56.2217 18.6781 53.6583 13.231 47.8159 13.8718C41.3861 14.5768 37.1778 20.921 32.1578 25.1719C31.5704 25.6738 30.78 24.8835 31.2713 24.2854C35.5009 19.2442 41.8347 15.0253 42.5182 8.58497C43.1377 2.74272 37.6798 0.200749 35.3941 0.0191798C30.8868 -0.237153 28.9642 2.13393 28.1845 3.66124V3.65057Z" fill="white"/>
</svg>
