<svg width="80" height="80" viewBox="0 0 80 80" fill="none" xmlns="http://www.w3.org/2000/svg">
<g filter="url(#filter0_d_932_944)">
<path d="M37.3481 2.00001C18.1308 2.01393 2.51045 17.509 2.01559 36.7901C1.89076 41.6557 2.50795 46.3073 4.14205 50.5666C4.14205 50.5666 -1.29811 24.0902 18.8306 10.2563C23.9918 6.81387 31.3731 5.08889 38.0673 5.23338C55.0169 5.59976 69.8747 20.9473 69.9896 37.9624C70.1083 55.5046 54.8247 70.2355 37.3738 70.2355C32.1819 70.2355 26.5568 68.9838 22.5185 66.2752C16.6185 62.3182 16.5211 55.9926 18.4356 50.7545C23.7818 36.1266 32.4807 14.8177 37.3738 14.3569C39.6426 14.1434 45.8961 23.4752 55.2011 54.0538C55.2247 54.1315 55.2366 54.2 55.243 54.2629C56.2283 55.7053 57.1672 57.2836 57.1672 57.2836C56.3475 56.2026 55.0263 55.072 53.7332 54.1023C39.9347 44.1775 23.9038 41.1588 23.9038 41.1588L23.2625 42.607C23.2625 42.607 37.3738 45.2989 54.9237 57.7552C56.3439 58.7633 57.7445 58.7096 58.0491 57.2538C58.7373 53.9634 44.7993 11.483 37.36 11.483C32.2566 11.483 21.4403 35.6684 15.9336 50.7389C12.9888 58.7981 15.6312 66.6683 23.4808 70.0773C27.812 71.9582 32.5889 73.0006 37.6085 73C57.1658 72.9978 72.9424 57.8719 72.9751 38.2431C73.0078 18.4726 57.0421 1.98581 37.3481 2.00001Z" fill="white"/>
<path d="M17.9984 41.3722L18.5976 39.8087C18.5976 39.8087 12.796 39.2032 7.70312 40.3903C7.70312 40.3903 14.0013 40.0676 17.9982 41.3725L17.9984 41.3722Z" fill="white"/>
<path d="M37.3743 36.9544C38.4634 36.9544 39.3463 36.0683 39.3463 34.9753C39.3463 33.8822 38.4634 32.9961 37.3743 32.9961C36.2852 32.9961 35.4023 33.8822 35.4023 34.9753C35.4023 36.0683 36.2852 36.9544 37.3743 36.9544Z" fill="white"/>
</g>
<defs>
<filter id="filter0_d_932_944" x="0.855958" y="0.855958" width="78.6016" height="78.6269" filterUnits="userSpaceOnUse" color-interpolation-filters="sRGB">
<feFlood flood-opacity="0" result="BackgroundImageFix"/>
<feColorMatrix in="SourceAlpha" type="matrix" values="0 0 0 0 0 0 0 0 0 0 0 0 0 0 0 0 0 0 127 0" result="hardAlpha"/>
<feOffset dx="2.66943" dy="2.66943"/>
<feGaussianBlur stdDeviation="1.90674"/>
<feColorMatrix type="matrix" values="0 0 0 0 0.113725 0 0 0 0 0.113725 0 0 0 0 0.105882 0 0 0 0.35 0"/>
<feBlend mode="normal" in2="BackgroundImageFix" result="effect1_dropShadow_932_944"/>
<feBlend mode="normal" in="SourceGraphic" in2="effect1_dropShadow_932_944" result="shape"/>
</filter>
</defs>
</svg>
