<svg width="207" height="71" viewBox="0 0 207 71" fill="none" xmlns="http://www.w3.org/2000/svg">
<path d="M170.75 9.16411e-06C151.533 0.0139293 135.913 15.509 135.418 34.7901C135.293 39.6557 135.91 44.3073 137.544 48.5666C137.544 48.5666 132.104 22.0902 152.233 8.25633C157.394 4.81387 164.775 3.08889 171.47 3.23338C188.419 3.59976 203.277 18.9473 203.392 35.9624C203.511 53.5046 188.227 68.2355 170.776 68.2355C165.584 68.2355 159.959 66.9838 155.921 64.2752C150.021 60.3182 149.923 53.9926 151.838 48.7545C157.184 34.1266 165.883 12.8177 170.776 12.3569C173.045 12.1434 179.298 21.4752 188.603 52.0538C188.627 52.1315 188.639 52.2 188.645 52.2629C189.631 53.7053 190.57 55.2836 190.57 55.2836C189.75 54.2026 188.429 53.072 187.135 52.1023C173.337 42.1775 157.306 39.1588 157.306 39.1588L156.665 40.607C156.665 40.607 170.776 43.2989 188.326 55.7552C189.746 56.7633 191.147 56.7096 191.451 55.2538C192.14 51.9634 178.202 9.48297 170.762 9.48297C165.659 9.48297 154.843 33.6684 149.336 48.7389C146.391 56.7981 149.034 64.6683 156.883 68.0773C161.214 69.9582 165.991 71.0006 171.011 71C190.568 70.9978 206.345 55.8719 206.377 36.2431C206.41 16.4726 190.444 -0.0141894 170.75 9.16411e-06Z" fill="white"/>
<path d="M151.401 39.3724L152 37.8088C152 37.8088 146.198 37.2033 141.105 38.3904C141.105 38.3904 147.404 38.0675 151.401 39.3724Z" fill="white"/>
<path d="M170.776 34.9546C171.865 34.9546 172.748 34.0685 172.748 32.9754C172.748 31.8823 171.865 30.9962 170.776 30.9962C169.687 30.9962 168.804 31.8823 168.804 32.9754C168.804 34.0685 169.687 34.9546 170.776 34.9546Z" fill="white"/>
<path d="M10.2254 35.2441L5.75167 48.8424H0L14.6351 5.61004H21.3454L36.0445 48.8421H30.1009L25.4996 35.2438L10.2254 35.2441ZM24.3492 30.8823L20.1313 18.4386C19.1726 15.6164 18.5335 13.0506 17.8944 10.5489H17.7665C17.1274 13.1147 16.4245 15.7445 15.5937 18.3743L11.3757 30.8821L24.3492 30.8823Z" fill="white"/>
<path d="M48.3155 8.88119V17.797H56.3681V22.0947H48.3155V38.8359C48.3155 42.6846 49.402 44.8653 52.5335 44.8653C54.0034 44.8653 55.0899 44.6729 55.7928 44.4806L56.0486 48.714C54.962 49.163 53.2367 49.4837 51.0636 49.4837C48.4434 49.4837 46.3344 48.6499 44.9924 47.1104C43.3946 45.4427 42.8196 42.6846 42.8196 39.0283V22.0947H38.0263V17.797H42.8196V10.3564L48.3155 8.88119Z" fill="white"/>
<path d="M62.695 3.30077H68.319V48.8419H62.695V3.30077Z" fill="white"/>
<path d="M94.9041 48.842L94.4566 44.9293H94.265C92.5393 47.3667 89.2162 49.5474 84.8063 49.5474C78.5431 49.5474 75.3479 45.1217 75.3479 40.6316C75.3479 33.127 81.9944 29.0219 93.9454 29.0859V28.4445C93.9454 25.8787 93.2425 21.2606 86.9155 21.2606C84.0396 21.2606 81.036 22.1587 78.8629 23.5697L77.5847 19.8494C80.1411 18.1817 83.8479 17.0912 87.7463 17.0912C97.2047 17.0912 99.5057 23.5697 99.5057 29.7914V41.4014C99.5057 44.0955 99.6336 46.7253 100.017 48.842H94.9041ZM94.073 32.9989C87.9377 32.8706 80.9716 33.9611 80.9716 39.9904C80.9716 43.6464 83.4002 45.3784 86.2762 45.3784C90.3025 45.3784 92.8589 42.8126 93.7535 40.1828C93.9451 39.6057 94.073 38.964 94.073 38.3868V32.9989Z" fill="white"/>
<path d="M107.814 43.0692C109.475 44.1597 112.415 45.3143 115.227 45.3143C119.317 45.3143 121.235 43.2616 121.235 40.6961C121.235 38.002 119.637 36.5268 115.483 34.9875C109.923 32.9991 107.302 29.9202 107.302 26.2C107.302 21.1968 111.329 17.0917 117.975 17.0917C121.107 17.0917 123.855 17.9898 125.58 19.016L124.174 23.1211C122.96 22.3513 120.723 21.3251 117.847 21.3251C114.524 21.3251 112.671 23.2494 112.671 25.5585C112.671 28.1243 114.524 29.2788 118.55 30.8181C123.919 32.8708 126.667 35.5646 126.667 40.183C126.667 45.6353 122.449 49.4836 115.099 49.4836C111.712 49.4836 108.58 48.6498 106.407 47.3669L107.814 43.0692Z" fill="white"/>
<path d="M69.4557 68.4101V59.9662H68.084V58.6092H69.4557V58.0833C69.4557 55.4914 70.9688 53.8096 73.7131 53.8096C74.6207 53.8096 75.6903 54.0933 76.1946 54.4577L75.6903 55.8146C75.2664 55.5112 74.5 55.2475 73.6326 55.2475C71.7555 55.2475 71.211 56.5633 71.211 58.1231V58.6095H76.8806V68.4104H75.1252V59.9664H71.211V68.4104L69.4557 68.4101Z" fill="white"/>
<path d="M79.8315 61.2626C79.8315 60.2504 79.811 59.4193 79.7511 58.6097H81.325L81.4259 60.2289H81.4661C81.9499 59.2974 83.0803 58.387 84.6944 58.387C86.0456 58.387 88.1443 59.1966 88.1443 62.5586V68.4104H86.3685V62.7613C86.3685 61.1816 85.7837 59.8642 84.1086 59.8642C82.9388 59.8642 82.0304 60.6953 81.728 61.6878C81.6476 61.9105 81.6073 62.2137 81.6073 62.5171V68.4101H79.8315V61.2626Z" fill="white"/>
<path d="M96.4444 68.4104L96.3032 67.1754H96.2425C95.698 67.9454 94.6489 68.6331 93.2567 68.6331C91.2794 68.6331 90.2709 67.2366 90.2709 65.8184C90.2709 63.4489 92.3688 62.153 96.1415 62.1727V61.9715C96.1415 61.1602 95.9196 59.7027 93.923 59.7027C93.0145 59.7027 92.0664 59.9864 91.3807 60.4316L90.9765 59.2576C91.784 58.7317 92.9538 58.387 94.1851 58.387C97.1709 58.387 97.8971 60.4316 97.8971 62.3955V66.0609C97.8971 66.9117 97.9373 67.7427 98.0588 68.4106L96.4444 68.4104ZM96.1815 63.4094C94.2445 63.3682 92.0456 63.7129 92.0456 65.6155C92.0456 66.7697 92.8129 67.3171 93.7205 67.3171C94.9912 67.3171 95.7987 66.5075 96.0813 65.6764C96.1412 65.4935 96.1815 65.2922 96.1815 65.1093V63.4094Z" fill="white"/>
<path d="M100.766 61.2626C100.766 60.2504 100.747 59.4193 100.686 58.6097H102.26L102.36 60.2289H102.401C102.885 59.2974 104.015 58.387 105.629 58.387C106.981 58.387 109.079 59.1966 109.079 62.5586V68.4104H107.303V62.7613C107.303 61.1816 106.719 59.8642 105.044 59.8642C103.874 59.8642 102.965 60.6953 102.663 61.6878C102.583 61.9105 102.542 62.2137 102.542 62.5171V68.4101H100.766V61.2626Z" fill="white"/>
<path d="M118.932 68.0458C118.468 68.2883 117.438 68.6129 116.127 68.6129C113.182 68.6129 111.264 66.6078 111.264 63.6103C111.264 60.6127 113.323 58.4064 116.51 58.4064C117.56 58.4064 118.488 58.6703 118.973 58.9125L118.569 60.2892C118.145 60.0467 117.479 59.8243 116.51 59.8243C114.271 59.8243 113.06 61.4847 113.06 63.5293C113.06 65.798 114.513 67.1947 116.449 67.1947C117.46 67.1947 118.125 66.9308 118.629 66.7083L118.932 68.0458Z" fill="white"/>
<path d="M121.882 63.8331C121.923 66.2438 123.456 67.2363 125.232 67.2363C126.503 67.2363 127.269 67.0136 127.936 66.7301L128.238 68.0047C127.612 68.2884 126.543 68.613 124.99 68.613C121.984 68.613 120.188 66.6277 120.188 63.6713C120.188 60.715 121.923 58.3867 124.768 58.3867C127.956 58.3867 128.803 61.2013 128.803 63.0034C128.803 63.3679 128.762 63.6516 128.742 63.8328L121.882 63.8331ZM127.088 62.5586C127.108 61.4241 126.623 59.6632 124.627 59.6632C122.832 59.6632 122.045 61.3236 121.903 62.5586H127.088Z" fill="white"/>
</svg>
