<svg width="175" height="146" viewBox="0 0 175 146" fill="none" xmlns="http://www.w3.org/2000/svg">
<g filter="url(#filter0_d_40_1591)">
<path d="M172.888 130.469L174.393 77.7847C167.606 77.5897 162.265 71.9314 162.455 65.1486L33.4332 61.467C33.4332 61.5668 33.4332 61.6665 33.4332 61.7708C33.2382 68.5218 27.6388 73.8447 20.8969 73.7087L19.3916 126.397C26.0293 126.642 31.2569 132.11 31.2297 138.725L160.252 142.407C160.447 135.619 166.105 130.279 172.888 130.469Z" fill="url(#paint0_linear_40_1591)"/>
</g>
<path style="mix-blend-mode:multiply" opacity="0.9" d="M35.6646 133.706C34.0823 128.306 29.9745 124.013 24.6562 122.19L25.9121 78.1791C31.4889 76.5832 35.9684 72.2578 37.7457 66.731L157.94 70.1631C159.477 75.6945 163.689 80.1514 169.125 82.0058L167.869 125.958C162.338 127.495 157.881 131.707 156.027 137.143L35.6601 133.706H35.6646Z" stroke="url(#paint1_linear_40_1591)" stroke-width="0.906786" stroke-miterlimit="10"/>
<path style="mix-blend-mode:multiply" opacity="0.9" d="M151.065 75.7126L149.528 129.603" stroke="url(#paint2_linear_40_1591)" stroke-width="0.906786" stroke-miterlimit="10"/>
<path style="mix-blend-mode:multiply" opacity="0.9" d="M44.3095 72.6614L42.7725 126.556" stroke="url(#paint3_linear_40_1591)" stroke-width="0.906786" stroke-miterlimit="10"/>
<path d="M159.58 120.611C158.391 120.577 157.482 120.379 156.852 120.017C156.216 119.655 155.911 119.014 155.937 118.093C155.963 117.179 156.304 116.559 156.96 116.233C157.609 115.908 158.528 115.762 159.717 115.796C160.92 115.83 161.843 116.028 162.487 116.391C163.123 116.753 163.428 117.391 163.402 118.305C163.376 119.226 163.035 119.849 162.379 120.175C161.716 120.5 160.783 120.645 159.58 120.611ZM159.704 116.25C159.017 116.23 158.435 116.265 157.958 116.355C157.481 116.437 157.1 116.619 156.817 116.9C156.527 117.174 156.375 117.575 156.36 118.105C156.345 118.634 156.474 119.047 156.748 119.344C157.015 119.633 157.384 119.836 157.855 119.953C158.327 120.063 158.906 120.127 159.594 120.147C160.295 120.167 160.887 120.136 161.371 120.053C161.848 119.964 162.232 119.782 162.522 119.508C162.812 119.227 162.964 118.822 162.979 118.293C162.994 117.764 162.865 117.354 162.591 117.064C162.318 116.768 161.945 116.564 161.473 116.455C160.995 116.338 160.406 116.27 159.704 116.25ZM159.757 114.409C158.568 114.375 157.658 114.177 157.029 113.815C156.393 113.453 156.087 112.811 156.114 111.89C156.14 110.976 156.481 110.356 157.137 110.031C157.786 109.706 158.705 109.56 159.894 109.594C161.097 109.628 162.02 109.826 162.663 110.188C163.299 110.55 163.605 111.189 163.579 112.103C163.552 113.024 163.211 113.647 162.555 113.972C161.893 114.297 160.96 114.443 159.757 114.409ZM159.881 110.047C159.194 110.028 158.611 110.063 158.134 110.152C157.657 110.235 157.277 110.417 156.994 110.698C156.704 110.972 156.551 111.373 156.536 111.902C156.521 112.432 156.651 112.845 156.924 113.141C157.191 113.431 157.56 113.634 158.032 113.751C158.503 113.86 159.083 113.925 159.77 113.945C160.471 113.965 161.064 113.933 161.548 113.851C162.025 113.761 162.408 113.579 162.698 113.306C162.988 113.025 163.141 112.62 163.156 112.091C163.171 111.561 163.041 111.152 162.768 110.862C162.494 110.565 162.121 110.362 161.65 110.252C161.172 110.136 160.582 110.067 159.881 110.047ZM156.714 108.569L156.291 108.557L156.335 107.031L163.665 107.239L163.652 107.703L156.744 107.507L156.714 108.569ZM163.366 105.809C162.509 104.491 161.675 103.449 160.864 102.683C160.054 101.91 159.267 101.513 158.504 101.491C158.003 101.477 157.59 101.599 157.266 101.859C156.942 102.111 156.772 102.536 156.755 103.134C156.738 103.732 156.907 104.194 157.262 104.521C157.618 104.847 158.094 105.04 158.691 105.098L158.678 105.552C157.923 105.482 157.342 105.232 156.935 104.8C156.527 104.369 156.333 103.81 156.353 103.122C156.371 102.497 156.561 101.99 156.922 101.601C157.285 101.206 157.813 101.018 158.507 101.037C159.366 101.062 160.221 101.482 161.071 102.297C161.922 103.105 162.666 104.024 163.304 105.054L163.422 100.94L163.813 100.951L163.675 105.818L163.366 105.809ZM162.01 100.123L161.65 100.112L156.678 96.0394L156.693 95.5136L161.735 95.657L161.769 94.4816L162.171 94.4931L162.137 95.6685L163.993 95.7213L163.98 96.175L162.124 96.1222L162.01 100.123ZM157.237 95.9728L161.624 99.5647L161.722 96.1004L157.237 95.9728ZM158.691 89.1235C158.194 89.185 157.807 89.3563 157.531 89.6374C157.248 89.9182 157.099 90.3096 157.085 90.8113C157.065 91.5193 157.311 92.0698 157.822 92.4627C158.334 92.8487 159.174 93.0584 160.343 93.0916L160.745 93.0928C160.274 92.9693 159.907 92.694 159.644 92.2669C159.374 91.8396 159.247 91.3475 159.263 90.7908C159.284 90.0484 159.524 89.4739 159.983 89.0674C160.441 88.6608 161.059 88.4685 161.836 88.4906C162.276 88.5032 162.675 88.5971 163.035 88.7724C163.395 88.9478 163.679 89.2173 163.889 89.581C164.099 89.9446 164.196 90.3946 164.181 90.9307C164.152 91.9618 163.809 92.6571 163.152 93.0168C162.488 93.3763 161.586 93.5398 160.444 93.5073C159.214 93.4723 158.275 93.2426 157.626 92.8183C156.978 92.3871 156.667 91.7144 156.693 90.8002C156.711 90.1609 156.904 89.6642 157.272 89.3101C157.633 88.9489 158.111 88.7389 158.704 88.6801L158.691 89.1235ZM159.663 90.8744C159.653 91.2249 159.716 91.5638 159.851 91.891C159.986 92.2181 160.198 92.489 160.488 92.7037C160.771 92.9112 161.122 93.0209 161.541 93.0329C161.926 93.0438 162.289 92.9785 162.631 92.8369C162.965 92.6882 163.24 92.4552 163.455 92.138C163.664 91.8206 163.775 91.4213 163.789 90.9402C163.805 90.349 163.64 89.8731 163.293 89.5124C162.945 89.1517 162.459 88.9624 161.833 88.9446C161.16 88.9254 160.636 89.0859 160.261 89.4261C159.88 89.7661 159.681 90.2489 159.663 90.8744ZM160.533 87.1421C159.344 87.1083 158.434 86.9104 157.805 86.5485C157.168 86.1865 156.863 85.5449 156.89 84.6238C156.916 83.7096 157.257 83.0899 157.912 82.7646C158.562 82.4391 159.481 82.2932 160.67 82.3271C161.873 82.3613 162.796 82.5596 163.439 82.9218C164.075 83.2839 164.38 83.922 164.354 84.8362C164.328 85.7573 163.987 86.3805 163.331 86.7058C162.668 87.0309 161.736 87.1763 160.533 87.1421ZM160.657 82.7807C159.969 82.7612 159.387 82.7962 158.91 82.8858C158.433 82.9686 158.053 83.1504 157.77 83.4312C157.48 83.705 157.327 84.1066 157.312 84.6358C157.297 85.1651 157.427 85.5781 157.7 85.8748C157.967 86.1645 158.336 86.3676 158.808 86.4842C159.279 86.5939 159.859 86.6586 160.546 86.6781C161.247 86.6981 161.84 86.6668 162.323 86.5842C162.801 86.4946 163.184 86.3129 163.474 86.0391C163.764 85.7584 163.917 85.3535 163.932 84.8242C163.947 84.2949 163.817 83.8854 163.544 83.5955C163.27 83.2988 162.897 83.0956 162.426 82.9859C161.948 82.8691 161.358 82.8007 160.657 82.7807Z" fill="#BA8E50"/>
<path d="M34.9343 78.7608C36.1235 78.7947 37.0328 78.9925 37.6622 79.3544C38.2986 79.7165 38.6037 80.358 38.5774 81.2791C38.5514 82.1933 38.2105 82.8131 37.5546 83.1384C36.9055 83.4639 35.9864 83.6097 34.7973 83.5758C33.5944 83.5416 32.6713 83.3434 32.0281 82.9811C31.3918 82.619 31.0866 81.9809 31.1126 81.0667C31.1388 80.1456 31.4799 79.5224 32.1358 79.1971C32.7986 78.872 33.7314 78.7266 34.9343 78.7608ZM34.8102 83.1222C35.4976 83.1417 36.0799 83.1067 36.5571 83.0171C37.0341 82.9344 37.4142 82.7526 37.6974 82.4717C37.9872 82.1979 38.1397 81.7964 38.1547 81.2671C38.1698 80.7378 38.0405 80.3248 37.7669 80.0281C37.5 79.7385 37.1308 79.5353 36.6595 79.4187C36.1879 79.309 35.6085 79.2444 34.9211 79.2248C34.22 79.2049 33.6275 79.2361 33.1436 79.3187C32.6664 79.4083 32.2828 79.59 31.993 79.8638C31.703 80.1445 31.5504 80.5494 31.5354 81.0787C31.5203 81.608 31.6497 82.0176 31.9235 82.3074C32.1971 82.6041 32.5697 82.8073 33.0412 82.9171C33.5194 83.0339 34.1091 83.1022 34.8102 83.1222ZM34.7578 84.9632C35.947 84.9971 36.8563 85.1949 37.4857 85.5568C38.1221 85.9189 38.4272 86.5605 38.4009 87.4815C38.3749 88.3957 38.034 89.0155 37.3781 89.3408C36.729 89.6663 35.8099 89.8121 34.6208 89.7783C33.4179 89.744 32.4948 89.5458 31.8516 89.1835C31.2153 88.8214 30.9101 88.1833 30.9361 87.2691C30.9623 86.348 31.3034 85.7249 31.9593 85.3996C32.6221 85.0745 33.5549 84.929 34.7578 84.9632ZM34.6337 89.3246C35.3211 89.3442 35.9034 89.3091 36.3806 89.2195C36.8576 89.1368 37.2377 88.955 37.5209 88.6741C37.8107 88.4003 37.9632 87.9988 37.9782 87.4695C37.9933 86.9402 37.864 86.5272 37.5904 86.2305C37.3235 85.9409 36.9543 85.7378 36.483 85.6212C36.0114 85.5114 35.432 85.4468 34.7446 85.4272C34.0435 85.4073 33.451 85.4386 32.9671 85.5211C32.4899 85.6107 32.1063 85.7924 31.8165 86.0662C31.5265 86.3469 31.3739 86.7519 31.3589 87.2811C31.3438 87.8104 31.4732 88.22 31.747 88.5098C32.0206 88.8065 32.3932 89.0097 32.8647 89.1195C33.3429 89.2363 33.9326 89.3046 34.6337 89.3246ZM37.8008 90.8033L38.2235 90.8153L38.1801 92.3412L30.8493 92.1326L30.8625 91.6687L37.7706 91.8652L37.8008 90.8033ZM31.1491 93.563C32.006 94.8807 32.8396 95.9225 33.6502 96.6885C34.4606 97.4614 35.2473 97.8588 36.0103 97.8805C36.5121 97.8947 36.9249 97.7723 37.2487 97.5133C37.5723 97.2611 37.7426 96.836 37.7597 96.2379C37.7767 95.6399 37.6075 95.1777 37.2522 94.8511C36.8969 94.5245 36.4208 94.3321 35.824 94.2739L35.8369 93.8202C36.5916 93.8898 37.1727 94.1403 37.5801 94.5715C37.9874 95.0027 38.1813 95.562 38.1618 96.2494C38.144 96.8749 37.9541 97.382 37.5922 97.7707C37.2301 98.1663 36.7019 98.3542 36.0077 98.3344C35.1485 98.31 34.2937 97.8901 33.4432 97.0748C32.5925 96.2663 31.8482 95.3474 31.2102 94.318L31.0931 98.4319L30.7013 98.4208L30.8398 93.5542L31.1491 93.563ZM32.5042 99.2492L32.8651 99.2595L37.8364 103.332L37.8214 103.858L32.7796 103.715L32.7461 104.89L32.344 104.879L32.3775 103.703L30.5216 103.651L30.5345 103.197L32.3904 103.25L32.5042 99.2492ZM37.2773 103.399L32.8908 99.8071L32.7922 103.271L37.2773 103.399ZM35.8235 110.248C36.3205 110.187 36.7072 110.016 36.9835 109.734C37.2666 109.454 37.4154 109.062 37.4296 108.56C37.4498 107.853 37.204 107.302 36.6924 106.909C36.1806 106.523 35.3404 106.313 34.1718 106.28L33.7694 106.279C34.2406 106.403 34.6077 106.678 34.8707 107.105C35.1406 107.532 35.2676 108.024 35.2518 108.581C35.2306 109.323 34.9907 109.898 34.532 110.304C34.0733 110.711 33.4556 110.903 32.6788 110.881C32.2389 110.869 31.8392 110.775 31.4795 110.599C31.1199 110.424 30.8352 110.155 30.6254 109.791C30.4157 109.427 30.3184 108.977 30.3337 108.441C30.363 107.41 30.7061 106.715 31.363 106.355C32.0267 105.996 32.9291 105.832 34.0702 105.865C35.3006 105.9 36.2399 106.129 36.8882 106.554C37.5364 106.985 37.8474 107.657 37.8214 108.572C37.8032 109.211 37.6102 109.708 37.2424 110.062C36.8813 110.423 36.4041 110.633 35.8108 110.692L35.8235 110.248ZM34.8517 108.497C34.8617 108.147 34.7991 107.808 34.6639 107.481C34.5288 107.154 34.3164 106.883 34.0267 106.668C33.7436 106.461 33.3925 106.351 32.9732 106.339C32.5883 106.328 32.2252 106.393 31.8841 106.535C31.5497 106.684 31.2748 106.917 31.0594 107.234C30.8508 107.551 30.7397 107.95 30.726 108.432C30.7092 109.023 30.8745 109.499 31.222 109.859C31.5694 110.22 32.0559 110.409 32.6814 110.427C33.355 110.446 33.879 110.286 34.2533 109.946C34.6344 109.606 34.8339 109.123 34.8517 108.497ZM33.9819 112.23C35.1711 112.264 36.0804 112.461 36.7098 112.823C37.3462 113.185 37.6512 113.827 37.625 114.748C37.599 115.662 37.2581 116.282 36.6022 116.607C35.9531 116.933 35.034 117.079 33.8449 117.045C32.642 117.011 31.7189 116.812 31.0757 116.45C30.4394 116.088 30.1342 115.45 30.1602 114.536C30.1864 113.615 30.5275 112.991 31.1834 112.666C31.8462 112.341 32.779 112.196 33.9819 112.23ZM33.8578 116.591C34.5452 116.611 35.1275 116.576 35.6047 116.486C36.0817 116.403 36.4618 116.221 36.745 115.941C37.0348 115.667 37.1872 115.265 37.2023 114.736C37.2174 114.207 37.0881 113.794 36.8145 113.497C36.5476 113.207 36.1784 113.004 35.7071 112.888C35.2355 112.778 34.6561 112.713 33.9687 112.694C33.2676 112.674 32.6751 112.705 32.1912 112.788C31.714 112.877 31.3304 113.059 31.0406 113.333C30.7506 113.613 30.598 114.018 30.583 114.548C30.5679 115.077 30.6973 115.486 30.9711 115.776C31.2447 116.073 31.6172 116.276 32.0888 116.386C32.567 116.503 33.1567 116.571 33.8578 116.591Z" fill="#BA8E50"/>
<path d="M49.2715 109.607L49.7346 93.3342L55.2331 93.4906C56.5098 93.527 57.5467 93.7871 58.3441 94.271C59.1469 94.7498 59.7332 95.3841 60.1031 96.1739C60.4729 96.9638 60.6442 97.8381 60.6169 98.7969C60.5896 99.7557 60.3688 100.622 59.9545 101.394C59.5455 102.167 58.9291 102.775 58.1054 103.218C57.2818 103.656 56.237 103.857 54.971 103.821L51.0298 103.709L51.0796 101.961L54.9571 102.071C55.8312 102.096 56.5374 101.965 57.0757 101.678C57.614 101.391 58.0096 100.994 58.2626 100.487C58.5211 99.9752 58.6596 99.3933 58.6781 98.7417C58.6967 98.0902 58.5914 97.504 58.3624 96.9833C58.1386 96.4626 57.7634 96.0491 57.2366 95.7425C56.7101 95.4306 56.0044 95.2621 55.1198 95.2369L51.6554 95.1383L51.2421 109.663L49.2715 109.607ZM63.4747 110.011L63.9378 93.7383L69.4363 93.8948C70.7076 93.931 71.745 94.1779 72.5484 94.6355C73.352 95.0877 73.939 95.6956 74.3096 96.4589C74.6802 97.2223 74.8519 98.0834 74.8246 99.0422C74.7973 100.001 74.5771 100.846 74.164 101.576C73.7509 102.307 73.1331 102.872 72.3106 103.273C71.4882 103.668 70.4466 103.848 69.1859 103.812L64.7362 103.685L64.7869 101.906L69.173 102.03C70.0417 102.055 70.7446 101.948 71.2815 101.709C71.8238 101.47 72.2207 101.12 72.4724 100.661C72.7295 100.197 72.8673 99.6386 72.8858 98.987C72.9044 98.3354 72.7987 97.7625 72.5689 97.2682C72.3391 96.774 71.9605 96.3868 71.433 96.1067C70.9057 95.8213 70.2023 95.6661 69.323 95.6411L65.8586 95.5425L65.4453 110.067L63.4747 110.011ZM71.3425 102.919L75.1392 110.343L72.8508 110.278L69.1177 102.856L71.3425 102.919ZM77.7871 110.419L78.2502 94.1456L88.0712 94.4251L88.0215 96.1732L80.171 95.9498L80.0146 101.448L87.3565 101.657L87.3068 103.405L79.9648 103.196L79.8074 108.727L87.7851 108.954L87.7353 110.702L77.7871 110.419ZM84.8392 92.8699L83.2497 90.598L81.5337 92.7758L79.7538 92.7252L79.7575 92.5981L82.426 89.3659L84.1423 89.4147L86.6227 92.7934L86.619 92.9206L84.8392 92.8699ZM91.623 94.5262L93.975 94.5931L99.1209 108.258L99.3116 108.264L105.226 94.9133L107.578 94.9802L107.115 111.253L105.272 111.201L105.624 98.8371L105.465 98.8326L100.028 111.052L98.2476 111.001L93.5141 98.4925L93.3552 98.488L93.0034 110.852L91.16 110.799L91.623 94.5262ZM113.5 95.1487L113.037 111.422L111.066 111.366L111.529 95.0926L113.5 95.1487ZM130.95 103.788C130.901 105.505 130.549 106.979 129.894 108.212C129.238 109.444 128.361 110.384 127.261 111.031C126.161 111.679 124.917 111.982 123.529 111.943C122.141 111.904 120.916 111.529 119.855 110.821C118.794 110.112 117.971 109.123 117.387 107.856C116.803 106.588 116.535 105.096 116.584 103.38C116.633 101.663 116.985 100.189 117.64 98.9564C118.295 97.7239 119.173 96.784 120.273 96.1367C121.373 95.4894 122.617 95.1855 124.005 95.225C125.393 95.2645 126.617 95.6386 127.678 96.3474C128.74 97.0562 129.563 98.0445 130.147 99.3123C130.731 100.58 130.999 102.072 130.95 103.788ZM129.043 103.734C129.083 102.325 128.881 101.129 128.437 100.146C127.999 99.1637 127.386 98.412 126.601 97.8913C125.82 97.3707 124.937 97.0964 123.952 97.0684C122.967 97.0404 122.067 97.2639 121.253 97.7391C120.444 98.2144 119.791 98.9301 119.292 99.8861C118.798 100.842 118.531 102.025 118.491 103.434C118.451 104.843 118.65 106.039 119.088 107.021C119.532 108.004 120.144 108.756 120.925 109.276C121.711 109.797 122.596 110.072 123.581 110.1C124.567 110.128 125.464 109.904 126.272 109.429C127.086 108.953 127.74 108.238 128.234 107.282C128.733 106.326 129.003 105.143 129.043 103.734ZM143.278 100.068C143.206 99.2598 142.837 98.6237 142.172 98.1594C141.506 97.6952 140.681 97.449 139.696 97.421C138.975 97.4005 138.341 97.4991 137.795 97.7168C137.253 97.9346 136.825 98.2432 136.512 98.6425C136.203 99.042 136.042 99.5012 136.027 100.02C136.015 100.455 136.108 100.831 136.305 101.15C136.508 101.463 136.771 101.727 137.094 101.943C137.416 102.154 137.756 102.331 138.112 102.473C138.469 102.611 138.797 102.723 139.097 102.811L140.737 103.303C141.158 103.427 141.625 103.594 142.138 103.805C142.657 104.016 143.15 104.297 143.617 104.65C144.09 104.997 144.475 105.438 144.772 105.971C145.07 106.504 145.208 107.152 145.186 107.915C145.161 108.795 144.908 109.583 144.427 110.279C143.951 110.976 143.268 111.521 142.377 111.915C141.491 112.308 140.423 112.487 139.172 112.452C138.007 112.419 137.003 112.202 136.161 111.801C135.324 111.401 134.672 110.858 134.204 110.171C133.741 109.485 133.49 108.696 133.452 107.804L135.486 107.862C135.521 108.478 135.714 108.992 136.062 109.405C136.417 109.813 136.869 110.122 137.42 110.334C137.976 110.541 138.577 110.654 139.223 110.672C139.975 110.693 140.654 110.591 141.26 110.364C141.865 110.132 142.349 109.801 142.711 109.372C143.074 108.937 143.263 108.422 143.28 107.829C143.295 107.289 143.157 106.845 142.865 106.497C142.572 106.15 142.183 105.863 141.696 105.637C141.21 105.411 140.683 105.21 140.115 105.035L138.129 104.406C136.868 104.005 135.876 103.454 135.154 102.755C134.432 102.056 134.086 101.158 134.117 100.061C134.143 99.1503 134.412 98.3628 134.924 97.6987C135.442 97.0296 136.124 96.5188 136.972 96.1665C137.825 95.8091 138.771 95.6452 139.809 95.6747C140.858 95.7046 141.785 95.9191 142.59 96.3185C143.395 96.7125 144.027 97.2394 144.485 97.8992C144.949 98.5592 145.182 99.3001 145.185 100.122L143.278 100.068Z" fill="#746D38"/>
<g filter="url(#filter1_d_40_1591)">
<path d="M145.815 58.3207L139.776 10.3427C133.596 11.1225 127.956 6.74273 127.176 0.562988L9.67945 15.3527C9.69305 15.4433 9.71119 15.534 9.72026 15.6292C10.4956 21.7772 6.16112 27.3902 0.03125 28.2154L6.07044 76.198C12.1232 75.4862 17.632 79.7118 18.5342 85.7147L136.031 70.925C135.251 64.7453 139.631 59.1051 145.811 58.3253L145.815 58.3207Z" fill="#0C9C35"/>
</g>
<path style="mix-blend-mode:multiply" opacity="0.9" d="M21.8482 80.5371C19.6537 75.8672 15.3284 72.5483 10.2504 71.6415L5.2041 31.5616C10.0373 29.3309 13.4876 24.7834 14.3264 19.5149L123.789 5.73633C125.961 10.5332 130.409 13.9881 135.595 14.9039L140.633 54.9295C135.836 57.1012 132.381 61.549 131.465 66.7358L21.8482 80.5326V80.5371Z" stroke="url(#paint4_linear_40_1591)" stroke-width="0.834243" stroke-miterlimit="10"/>
<path style="mix-blend-mode:multiply" opacity="0.9" d="M118.335 11.739L124.51 60.8188" stroke="url(#paint5_linear_40_1591)" stroke-width="0.834243" stroke-miterlimit="10"/>
<path style="mix-blend-mode:multiply" opacity="0.9" d="M21.1143 23.9758L27.2895 73.0511" stroke="url(#paint6_linear_40_1591)" stroke-width="0.834243" stroke-miterlimit="10"/>
<path d="M132.249 51.2845C131.166 51.4208 130.313 51.369 129.691 51.1292C129.063 50.8901 128.697 50.3511 128.591 49.512C128.486 48.6792 128.708 48.0692 129.258 47.682C129.801 47.2957 130.614 47.0344 131.697 46.8981C132.793 46.7602 133.658 46.8104 134.292 47.0487C134.92 47.2877 135.287 47.8237 135.391 48.6565C135.497 49.4956 135.275 50.1087 134.726 50.4959C134.17 50.8838 133.345 51.1467 132.249 51.2845ZM131.749 47.3114C131.123 47.3901 130.6 47.5037 130.179 47.6519C129.758 47.794 129.439 48.0122 129.222 48.3067C128.997 48.5958 128.915 48.9814 128.976 49.4635C129.037 49.9457 129.212 50.3021 129.502 50.5328C129.785 50.7581 130.148 50.8905 130.592 50.93C131.035 50.9634 131.57 50.9406 132.196 50.8619C132.834 50.7815 133.367 50.6699 133.795 50.5271C134.215 50.3788 134.537 50.1602 134.762 49.8711C134.985 49.5758 135.067 49.1871 135.006 48.705C134.946 48.2228 134.771 47.8695 134.482 47.645C134.192 47.4143 133.826 47.2823 133.382 47.249C132.932 47.2102 132.388 47.231 131.749 47.3114ZM131.538 45.6342C130.455 45.7704 129.602 45.7187 128.981 45.4788C128.353 45.2398 127.986 44.7007 127.88 43.8616C127.775 43.0288 127.998 42.4188 128.547 42.0317C129.09 41.6453 129.903 41.384 130.986 41.2477C132.082 41.1099 132.947 41.1601 133.581 41.3983C134.209 41.6374 134.576 42.1733 134.681 43.0061C134.786 43.8452 134.564 44.4584 134.015 44.8455C133.46 45.2334 132.634 45.4963 131.538 45.6342ZM131.038 41.661C130.412 41.7398 129.889 41.8533 129.469 42.0016C129.048 42.1436 128.728 42.3619 128.511 42.6564C128.287 42.9454 128.205 43.331 128.265 43.8132C128.326 44.2953 128.501 44.6518 128.791 44.8825C129.074 45.1077 129.437 45.2401 129.881 45.2797C130.324 45.313 130.859 45.2903 131.485 45.2115C132.124 45.1311 132.657 45.0196 133.084 44.8768C133.504 44.7285 133.827 44.5098 134.051 44.2208C134.275 43.9255 134.356 43.5368 134.296 43.0546C134.235 42.5724 134.06 42.2191 133.771 41.9947C133.481 41.764 133.115 41.632 132.672 41.5987C132.221 41.5599 131.677 41.5807 131.038 41.661ZM127.958 40.7646L127.573 40.813L127.398 39.4229L134.076 38.5828L134.13 39.0054L127.836 39.7971L127.958 40.7646ZM133.604 37.3275C132.642 36.2527 131.739 35.4248 130.896 34.8438C130.053 34.2566 129.283 34.0067 128.588 34.0941C128.131 34.1516 127.774 34.3206 127.517 34.6011C127.259 34.8753 127.164 35.2847 127.232 35.8295C127.301 36.3743 127.519 36.7698 127.887 37.0161C128.255 37.2624 128.714 37.3701 129.264 37.3391L129.316 37.7524C128.621 37.7952 128.059 37.6497 127.629 37.3158C127.199 36.9818 126.945 36.5018 126.866 35.8756C126.794 35.3058 126.895 34.8192 127.169 34.4158C127.442 34.0062 127.895 33.7616 128.527 33.682C129.31 33.5836 130.144 33.8444 131.03 34.4644C131.915 35.0783 132.719 35.8072 133.442 36.6513L132.971 32.9036L133.328 32.8587L133.885 37.2921L133.604 37.3275ZM131.576 32.3604L131.247 32.4018L126.167 29.4056L126.106 28.9266L130.699 28.3488L130.565 27.278L130.931 27.2319L131.066 28.3027L132.757 28.09L132.808 28.5033L131.118 28.716L131.576 32.3604ZM126.664 29.2667L131.147 31.9087L130.75 28.7527L126.664 29.2667ZM127.021 22.8502C126.579 22.9758 126.252 23.1855 126.041 23.4792C125.824 23.7737 125.744 24.1495 125.801 24.6067C125.883 25.2516 126.183 25.7164 126.702 26.0009C127.22 26.2792 128.012 26.3514 129.076 26.2175L129.442 26.162C128.997 26.1162 128.625 25.918 128.327 25.5675C128.022 25.2179 127.838 24.7894 127.774 24.2822C127.689 23.6059 127.826 23.0512 128.185 22.618C128.544 22.1848 129.077 21.9237 129.785 21.8347C130.185 21.7843 130.561 21.8134 130.912 21.9219C131.263 22.0304 131.559 22.2349 131.8 22.5353C132.041 22.8357 132.193 23.2302 132.254 23.7186C132.372 24.6579 132.159 25.3367 131.614 25.7552C131.062 26.1744 130.267 26.4494 129.227 26.5802C128.106 26.7212 127.222 26.6448 126.574 26.3509C125.926 26.0509 125.549 25.4844 125.445 24.6516C125.371 24.0692 125.477 23.5916 125.76 23.2188C126.037 22.8405 126.441 22.583 126.97 22.4464L127.021 22.8502ZM128.149 24.3019C128.189 24.6212 128.293 24.9198 128.462 25.1976C128.63 25.4753 128.861 25.6912 129.154 25.8452C129.44 25.9937 129.773 26.0439 130.155 25.9959C130.506 25.9518 130.826 25.8415 131.116 25.6652C131.398 25.4833 131.615 25.2334 131.766 24.9155C131.91 24.5983 131.955 24.2206 131.9 23.7823C131.832 23.2437 131.615 22.8353 131.249 22.5569C130.884 22.2785 130.416 22.1751 129.846 22.2468C129.232 22.324 128.78 22.5432 128.488 22.9043C128.19 23.2662 128.077 23.732 128.149 24.3019ZM128.413 20.7946C127.33 20.9308 126.478 20.8791 125.856 20.6392C125.228 20.4002 124.861 19.8611 124.755 19.022C124.651 18.1892 124.873 17.5792 125.422 17.1921C125.965 16.8057 126.778 16.5444 127.862 16.4081C128.957 16.2703 129.822 16.3205 130.457 16.5587C131.085 16.7978 131.451 17.3337 131.556 18.1665C131.661 19.0056 131.44 19.6188 130.89 20.0059C130.335 20.3938 129.509 20.6567 128.413 20.7946ZM127.914 16.8214C127.287 16.9002 126.764 17.0137 126.344 17.162C125.923 17.304 125.604 17.5223 125.386 17.8168C125.162 18.1058 125.08 18.4914 125.141 18.9736C125.201 19.4557 125.376 19.8122 125.666 20.0429C125.949 20.2681 126.312 20.4005 126.756 20.4401C127.199 20.4734 127.734 20.4507 128.36 20.3719C128.999 20.2915 129.532 20.18 129.959 20.0372C130.379 19.8889 130.702 19.6702 130.926 19.3812C131.15 19.0859 131.231 18.6972 131.171 18.215C131.11 17.7328 130.935 17.3795 130.646 17.1551C130.356 16.9244 129.99 16.7924 129.547 16.7591C129.097 16.7203 128.552 16.7411 127.914 16.8214Z" fill="white"/>
<path d="M13.5401 30.7858C14.6234 30.6495 15.476 30.7013 16.0977 30.9411C16.7257 31.1802 17.0925 31.7192 17.198 32.5583C17.3028 33.3912 17.0806 34.0011 16.5313 34.3883C15.9884 34.7746 15.1752 35.036 14.0919 35.1722C12.9961 35.3101 12.1311 35.2599 11.4968 35.0216C10.8688 34.7826 10.5024 34.2466 10.3976 33.4138C10.2921 32.5747 10.5139 31.9616 11.0631 31.5745C11.6186 31.1865 12.4443 30.9236 13.5401 30.7858ZM14.0399 34.7589C14.6661 34.6802 15.1894 34.5666 15.6096 34.4184C16.0306 34.2763 16.3499 34.0581 16.5673 33.7636C16.7917 33.4745 16.8736 33.0889 16.8129 32.6068C16.7523 32.1246 16.577 31.7682 16.2872 31.5375C16.0044 31.3122 15.6411 31.1798 15.1972 31.1403C14.7541 31.107 14.2195 31.1297 13.5933 31.2085C12.9546 31.2888 12.4216 31.4004 11.9943 31.5432C11.574 31.6915 11.2517 31.9101 11.0272 32.1992C10.8036 32.4945 10.7221 32.8832 10.7827 33.3654C10.8434 33.8475 11.0182 34.2008 11.3073 34.4253C11.5971 34.656 11.9636 34.788 12.4067 34.8213C12.8568 34.8601 13.4012 34.8393 14.0399 34.7589ZM14.2509 36.4361C15.3342 36.2999 16.1868 36.3517 16.8085 36.5915C17.4365 36.8305 17.8033 37.3696 17.9088 38.2087C18.0136 39.0415 17.7914 39.6515 17.2421 40.0387C16.6992 40.425 15.886 40.6863 14.8027 40.8226C13.7069 40.9604 12.8419 40.9102 12.2076 40.672C11.5796 40.4329 11.2132 39.897 11.1084 39.0642C11.0029 38.2251 11.2247 37.612 11.7739 37.2248C12.3294 36.8369 13.1551 36.574 14.2509 36.4361ZM14.7507 40.4093C15.3769 40.3305 15.9002 40.217 16.3204 40.0687C16.7414 39.9267 17.0607 39.7084 17.2781 39.4139C17.5025 39.1249 17.5844 38.7393 17.5237 38.2571C17.4631 37.775 17.2878 37.4185 16.998 37.1878C16.7152 36.9626 16.3519 36.8302 15.908 36.7906C15.4649 36.7573 14.9303 36.7801 14.3041 36.8588C13.6654 36.9392 13.1324 37.0508 12.7051 37.1936C12.2848 37.3418 11.9625 37.5605 11.738 37.8495C11.5144 38.1448 11.4329 38.5336 11.4935 39.0157C11.5542 39.4979 11.729 39.8512 12.0181 40.0756C12.3079 40.3063 12.6744 40.4383 13.1175 40.4717C13.5676 40.5104 14.112 40.4897 14.7507 40.4093ZM17.8309 41.3058L18.216 41.2573L18.3909 42.6474L11.7126 43.4876L11.6594 43.0649L17.9526 42.2732L17.8309 41.3058ZM12.1854 44.7428C13.1475 45.8176 14.05 46.6455 14.8927 47.2265C15.7363 47.8137 16.5056 48.0636 17.2006 47.9762C17.6578 47.9187 18.015 47.7497 18.2723 47.4692C18.5304 47.1951 18.6252 46.7856 18.5567 46.2408C18.4881 45.696 18.2698 45.3005 17.9017 45.0542C17.5336 44.8079 17.0748 44.7002 16.5253 44.7312L16.4733 44.3179C17.1676 44.2751 17.7298 44.4206 18.1598 44.7545C18.5898 45.0885 18.8442 45.5685 18.923 46.1947C18.9947 46.7645 18.8937 47.2511 18.62 47.6545C18.3471 48.0641 17.8945 48.3087 17.262 48.3883C16.4793 48.4867 15.645 48.2259 14.7592 47.6059C13.8741 46.9921 13.07 46.2631 12.3468 45.419L12.8182 49.1668L12.4613 49.2117L11.9036 44.7782L12.1854 44.7428ZM14.2128 49.7099L14.5416 49.6686L19.6224 52.6647L19.6827 53.1437L15.0896 53.7215L15.2243 54.7923L14.858 54.8384L14.7233 53.7676L13.0326 53.9803L12.9806 53.567L14.6713 53.3543L14.2128 49.7099ZM19.1246 52.8036L14.6418 50.1616L15.0388 53.3176L19.1246 52.8036ZM18.7678 59.2201C19.21 59.0945 19.5366 58.8848 19.7477 58.5911C19.9651 58.2966 20.0451 57.9208 19.9876 57.4637C19.9064 56.8187 19.6063 56.3539 19.087 56.0694C18.5686 55.7911 17.7771 55.7189 16.7126 55.8528L16.3474 55.9083C16.7921 55.9542 17.1637 56.1523 17.4622 56.5028C17.767 56.8525 17.9513 57.2809 18.0151 57.7881C18.1002 58.4644 17.9633 59.0191 17.6043 59.4523C17.2453 59.8855 16.712 60.1466 16.0044 60.2356C15.6037 60.286 15.2279 60.2569 14.8771 60.1484C14.5263 60.0399 14.2303 59.8354 13.9889 59.535C13.7476 59.2346 13.5962 58.8402 13.5348 58.3517C13.4166 57.4124 13.6302 56.7336 14.1755 56.3151C14.727 55.8959 15.5225 55.6209 16.562 55.4901C17.6829 55.3491 18.5671 55.4255 19.2147 55.7194C19.8631 56.0195 20.2397 56.5859 20.3445 57.4188C20.4178 58.0011 20.3124 58.4787 20.0286 58.8515C19.7518 59.2299 19.3484 59.4873 18.8186 59.624L18.7678 59.2201ZM17.6405 57.7684C17.6004 57.4491 17.496 57.1505 17.3275 56.8728C17.159 56.595 16.9283 56.3791 16.6354 56.2251C16.3495 56.0766 16.0156 56.0264 15.6337 56.0744C15.283 56.1186 14.9629 56.2288 14.6734 56.4052C14.3909 56.587 14.1743 56.8369 14.0235 57.1548C13.8789 57.472 13.8342 57.8497 13.8893 58.288C13.9571 58.8266 14.1738 59.235 14.5396 59.5134C14.9054 59.7918 15.3732 59.8952 15.9431 59.8235C16.5567 59.7463 17.0094 59.5271 17.3011 59.166C17.5991 58.8041 17.7122 58.3383 17.6405 57.7684ZM17.3757 61.2757C18.459 61.1395 19.3115 61.1912 19.9333 61.4311C20.5613 61.6701 20.928 62.2092 21.0336 63.0483C21.1384 63.8811 20.9161 64.4911 20.3669 64.8782C19.8239 65.2646 19.0108 65.5259 17.9275 65.6622C16.8317 65.8 15.9666 65.7498 15.3324 65.5116C14.7043 65.2725 14.338 64.7366 14.2332 63.9038C14.1276 63.0647 14.3495 62.4516 14.8987 62.0644C15.4542 61.6765 16.2799 61.4136 17.3757 61.2757ZM17.8755 65.2489C18.5017 65.1701 19.0249 65.0566 19.4452 64.9083C19.8662 64.7663 20.1854 64.548 20.4028 64.2535C20.6273 63.9645 20.7091 63.5789 20.6485 63.0967C20.5878 62.6146 20.4126 62.2581 20.1228 62.0274C19.84 61.8022 19.4767 61.6698 19.0328 61.6302C18.5897 61.5969 18.055 61.6196 17.4289 61.6984C16.7901 61.7788 16.2571 61.8903 15.8298 62.0332C15.4096 62.1814 15.0872 62.4001 14.8628 62.6891C14.6391 62.9844 14.5576 63.3732 14.6183 63.8553C14.679 64.3375 14.8538 64.6908 15.1428 64.9152C15.4327 65.1459 15.7991 65.2779 16.2422 65.3112C16.6924 65.35 17.2368 65.3293 17.8755 65.2489Z" fill="white"/>
<path d="M38.7876 52.2481L32.3262 53.061L29.6922 32.1226L36.4399 31.2738C38.471 31.0182 40.2618 31.2188 41.8122 31.8754C43.3618 32.5251 44.6199 33.582 45.5864 35.0459C46.5521 36.5031 47.1713 38.3153 47.4439 40.4828C47.7183 42.6639 47.566 44.5905 46.9871 46.2627C46.4073 47.9281 45.4276 49.2769 44.0481 50.309C42.6677 51.3342 40.9142 51.9806 38.7876 52.2481ZM34.5787 50.4928L38.3411 50.0195C40.0723 49.8017 41.4651 49.2872 42.5193 48.4761C43.5735 47.6649 44.3025 46.6074 44.7062 45.3034C45.1099 43.9994 45.2046 42.4954 44.9902 40.7915C44.7776 39.1011 44.3185 37.6807 43.6129 36.5301C42.9065 35.3727 41.9634 34.5358 40.7838 34.0195C39.6033 33.4965 38.1951 33.3378 36.5593 33.5436L32.5106 34.0529L34.5787 50.4928ZM59.3173 49.9979C57.8042 50.1882 56.4569 50.0185 55.2755 49.4885C54.1001 48.951 53.14 48.1163 52.3953 46.9844C51.6565 45.845 51.1859 44.4709 50.9836 42.8624C50.7812 41.2538 50.896 39.7993 51.3278 38.4987C51.7656 37.1904 52.4694 36.1256 53.4393 35.3043C54.4151 34.4754 55.6119 33.9717 57.0296 33.7933C57.8475 33.6905 58.6723 33.7252 59.504 33.8975C60.3358 34.0698 61.1174 34.4215 61.8489 34.9526C62.5795 35.4769 63.2021 36.2156 63.7167 37.1687C64.2312 38.1217 64.5807 39.331 64.765 40.7964L64.8936 41.8188L52.7886 43.3415L52.5263 41.2559L62.1775 40.0418C62.0661 39.1557 61.7894 38.3874 61.3475 37.7367C60.9125 37.0852 60.3459 36.5992 59.6478 36.2785C58.9565 35.9569 58.1746 35.851 57.3022 35.9608C56.3412 36.0817 55.5397 36.4249 54.8976 36.9903C54.2616 37.548 53.8037 38.2288 53.524 39.0325C53.2443 39.8362 53.1589 40.6709 53.2678 41.5365L53.4427 42.9269C53.5919 44.1129 53.9228 45.0925 54.4355 45.8658C54.9542 46.6314 55.6086 47.1826 56.3987 47.5194C57.188 47.8494 58.07 47.9531 59.0446 47.8304C59.6785 47.7507 60.2399 47.5901 60.7288 47.3486C61.2237 47.0994 61.6358 46.7706 61.9652 46.3622C62.2938 45.9469 62.526 45.4538 62.6619 44.8829L65.0753 45.2439C64.9293 46.0654 64.6044 46.8125 64.1005 47.4852C63.5958 48.1511 62.9384 48.7046 62.1285 49.1457C61.3176 49.5801 60.3806 49.8641 59.3173 49.9979ZM74.4664 31.8075L74.7236 33.8523L66.2583 34.9172L66.0011 32.8725L74.4664 31.8075ZM70.5121 48.2573L68.264 30.3861C68.1508 29.4864 68.2677 28.71 68.6149 28.0571C68.962 27.4041 69.4541 26.8852 70.0911 26.5005C70.7282 26.1157 71.4216 25.8761 72.1713 25.7818C72.7643 25.7072 73.2542 25.6941 73.6411 25.7423C74.028 25.7906 74.3186 25.844 74.5129 25.9027L74.0801 28.0758C73.9522 28.0503 73.7754 28.0206 73.5496 27.9867C73.3306 27.952 73.0473 27.9565 72.6997 28.0002C71.9022 28.1005 71.3515 28.374 71.0477 28.8208C70.7507 29.2666 70.651 29.8781 70.7488 30.6551L72.9249 47.9537L70.5121 48.2573ZM79.8234 47.0859L77.8479 31.3822L80.2608 31.0786L82.2363 46.7824L79.8234 47.0859ZM78.7456 28.6105C78.2753 28.6697 77.8496 28.5605 77.4685 28.2831C77.0942 28.0047 76.8788 27.6406 76.8222 27.1908C76.7656 26.7409 76.8841 26.3348 77.1778 25.9725C77.4783 25.6093 77.8637 25.3981 78.334 25.3389C78.8043 25.2797 79.2266 25.3893 79.6009 25.6677C79.9819 25.9451 80.2008 26.3088 80.2574 26.7587C80.314 27.2085 80.192 27.615 79.8915 27.9782C79.5978 28.3406 79.2159 28.5514 78.7456 28.6105ZM87.8799 36.4761L89.0683 45.9229L86.6555 46.2265L84.68 30.5227L87.011 30.2295L87.3197 32.6832L87.5242 32.6575C87.7919 31.8137 88.2702 31.1027 88.9591 30.5245C89.6471 29.9394 90.5841 29.5723 91.7701 29.4231C92.8333 29.2893 93.7911 29.3904 94.6435 29.7263C95.4949 30.0554 96.1975 30.6317 96.7511 31.4552C97.3039 32.2719 97.6643 33.3482 97.8324 34.6841L99.0877 44.6625L96.6748 44.9661L95.4402 35.1512C95.285 33.9175 94.8437 32.9968 94.1164 32.389C93.3883 31.7744 92.4653 31.5374 91.3475 31.678C90.5773 31.7749 89.9099 32.0285 89.3453 32.4387C88.7875 32.8482 88.3751 33.3951 88.1081 34.0795C87.8411 34.7639 87.765 35.5628 87.8799 36.4761ZM108.164 43.8946C107.169 44.0198 106.242 43.946 105.384 43.6731C104.525 43.3935 103.812 42.9258 103.245 42.2702C102.677 41.6077 102.328 40.7653 102.2 39.7429C102.087 38.8432 102.172 38.0916 102.456 37.4881C102.739 36.8778 103.157 36.3752 103.71 35.9803C104.263 35.5853 104.887 35.2645 105.583 35.0177C106.285 34.7632 106.995 34.5424 107.712 34.3552C108.651 34.1125 109.413 33.9232 109.998 33.7872C110.589 33.6436 111.011 33.4763 111.264 33.2852C111.524 33.0933 111.629 32.8031 111.58 32.4146L111.57 32.3328C111.443 31.324 111.069 30.5749 110.446 30.0855C109.831 29.5952 108.967 29.4199 107.856 29.5597C106.704 29.7046 105.833 30.0704 105.242 30.6571C104.651 31.2437 104.259 31.8401 104.065 32.446L101.672 31.9162C101.961 30.9106 102.413 30.099 103.028 29.4817C103.648 28.8566 104.351 28.3874 105.135 28.0741C105.926 27.7531 106.716 27.5429 107.507 27.4434C108.011 27.38 108.598 27.3684 109.268 27.4088C109.944 27.4415 110.612 27.6033 111.271 27.8942C111.938 28.1842 112.522 28.675 113.025 29.3665C113.527 30.0579 113.857 31.0273 114.014 32.2746L115.315 42.6211L112.903 42.9247L112.635 40.7981L112.512 40.8135C112.392 41.1749 112.165 41.5739 111.832 42.0104C111.499 42.4469 111.033 42.8413 110.433 43.1937C109.834 43.5461 109.077 43.7797 108.164 43.8946ZM108.26 41.6809C109.214 41.5608 109.994 41.2722 110.602 40.815C111.216 40.357 111.652 39.8105 111.912 39.1755C112.178 38.5396 112.27 37.8945 112.187 37.2402L111.91 35.0319C111.823 35.1674 111.612 35.3082 111.277 35.4541C110.949 35.5924 110.564 35.7274 110.124 35.8589C109.689 35.9828 109.264 36.0986 108.848 36.2063C108.439 36.3063 108.106 36.3897 107.852 36.4563C107.235 36.617 106.665 36.8236 106.143 37.0763C105.627 37.3212 105.225 37.6453 104.936 38.0486C104.654 38.4441 104.551 38.9486 104.628 39.5621C104.734 40.4004 105.123 40.9953 105.798 41.3467C106.478 41.6904 107.298 41.8018 108.26 41.6809Z" fill="white"/>
<path d="M39.438 67.6459C38.6626 67.7434 37.9592 67.6445 37.3276 67.3491C36.6997 67.0532 36.18 66.5941 35.7685 65.9719C35.3607 65.3492 35.1011 64.5943 34.9895 63.7072C34.8769 62.8126 34.9408 62.0113 35.1812 61.3033C35.4253 60.5948 35.8148 60.0195 36.3499 59.5774C36.8887 59.1347 37.5457 58.8646 38.321 58.7671C39.0963 58.6696 39.7979 58.7688 40.4258 59.0646C41.0575 59.36 41.5774 59.8209 41.9856 60.4473C42.3976 61.0733 42.6598 61.8335 42.7723 62.7281C42.8839 63.6153 42.8175 64.4112 42.5729 65.1159C42.3321 65.8202 41.9423 66.3937 41.4035 66.8363C40.8684 67.2785 40.2133 67.5483 39.438 67.6459ZM39.2888 66.4605C39.8778 66.3864 40.3434 66.1745 40.6856 65.8248C41.0278 65.475 41.2593 65.0427 41.38 64.5277C41.5008 64.0127 41.525 63.4681 41.4528 62.8941C41.3806 62.3201 41.222 61.7967 40.977 61.3239C40.732 60.8512 40.4002 60.4859 39.9815 60.228C39.5629 59.9702 39.0591 59.8784 38.4701 59.9524C37.8812 60.0265 37.4159 60.2403 37.0741 60.5938C36.7324 60.9473 36.5014 61.3834 36.3811 61.9021C36.2608 62.4208 36.2368 62.9672 36.309 63.5412C36.3812 64.1152 36.5396 64.6368 36.7841 65.1058C37.0286 65.5749 37.36 65.9364 37.7782 66.1905C38.1964 66.4446 38.6999 66.5346 39.2888 66.4605ZM50.5659 59.2941L49.4227 59.7787C49.3233 59.5905 49.1892 59.4124 49.0204 59.2443C48.8549 59.072 48.6413 58.9399 48.3799 58.8478C48.1184 58.7558 47.7957 58.7339 47.4117 58.7822C46.8862 58.8483 46.4634 59.0245 46.1435 59.3109C45.8269 59.593 45.6918 59.9186 45.7382 60.2876C45.7795 60.6157 45.9313 60.8597 46.1938 61.0198C46.4563 61.1799 46.849 61.2914 47.3718 61.3544L48.686 61.5071C49.4773 61.5969 50.0853 61.8101 50.5101 62.1466C50.9344 62.4795 51.1843 62.946 51.2598 63.5461C51.3217 64.0381 51.2354 64.4957 51.0008 64.919C50.77 65.3419 50.4171 65.6967 49.942 65.9837C49.467 66.2706 48.8958 66.4561 48.2286 66.54C47.3527 66.6502 46.6038 66.5513 45.9819 66.2433C45.3601 65.9353 44.9268 65.4257 44.6821 64.7143L45.8951 64.2437C46.0725 64.6908 46.3416 65.0091 46.7024 65.1985C47.067 65.3874 47.5195 65.4479 48.06 65.3799C48.675 65.3025 49.1469 65.1106 49.4756 64.8042C49.8076 64.4936 49.9504 64.1538 49.904 63.7848C49.8665 63.4866 49.7307 63.25 49.4966 63.075C49.2621 62.8962 48.9223 62.7837 48.4773 62.7375L47.0037 62.582C46.1938 62.4946 45.5797 62.2784 45.1615 61.9335C44.7465 61.5843 44.5017 61.1134 44.4271 60.5207C44.3662 60.0362 44.4483 59.5904 44.6735 59.1834C44.9025 58.776 45.2403 58.4363 45.6869 58.1642C46.1373 57.8918 46.6644 57.7175 47.2683 57.6416C48.1181 57.5347 48.8088 57.6371 49.3402 57.9489C49.8754 58.2602 50.284 58.7086 50.5659 59.2941Z" fill="white"/>
<defs>
<filter id="filter0_d_40_1591" x="19.3916" y="61.467" width="155.001" height="83.6601" filterUnits="userSpaceOnUse" color-interpolation-filters="sRGB">
<feFlood flood-opacity="0" result="BackgroundImageFix"/>
<feColorMatrix in="SourceAlpha" type="matrix" values="0 0 0 0 0 0 0 0 0 0 0 0 0 0 0 0 0 0 127 0" result="hardAlpha"/>
<feOffset dy="2.72036"/>
<feColorMatrix type="matrix" values="0 0 0 0 0.517647 0 0 0 0 0.596078 0 0 0 0 0.686275 0 0 0 0.3 0"/>
<feBlend mode="normal" in2="BackgroundImageFix" result="effect1_dropShadow_40_1591"/>
<feBlend mode="normal" in="SourceGraphic" in2="effect1_dropShadow_40_1591" result="shape"/>
</filter>
<filter id="filter1_d_40_1591" x="0.03125" y="0.562988" width="145.784" height="87.8722" filterUnits="userSpaceOnUse" color-interpolation-filters="sRGB">
<feFlood flood-opacity="0" result="BackgroundImageFix"/>
<feColorMatrix in="SourceAlpha" type="matrix" values="0 0 0 0 0 0 0 0 0 0 0 0 0 0 0 0 0 0 127 0" result="hardAlpha"/>
<feOffset dy="2.72036"/>
<feColorMatrix type="matrix" values="0 0 0 0 0.517647 0 0 0 0 0.596078 0 0 0 0 0.686275 0 0 0 0.3 0"/>
<feBlend mode="normal" in2="BackgroundImageFix" result="effect1_dropShadow_40_1591"/>
<feBlend mode="normal" in="SourceGraphic" in2="effect1_dropShadow_40_1591" result="shape"/>
</filter>
<linearGradient id="paint0_linear_40_1591" x1="89.9757" y1="51.5599" x2="105.141" y2="162.251" gradientUnits="userSpaceOnUse">
<stop stop-color="#FFC13B"/>
<stop offset="1" stop-color="#FFA246"/>
</linearGradient>
<linearGradient id="paint1_linear_40_1591" x1="90.987" y1="58.9275" x2="102.768" y2="144.934" gradientUnits="userSpaceOnUse">
<stop stop-color="#FFA246"/>
<stop offset="1" stop-color="#A47B74"/>
</linearGradient>
<linearGradient id="paint2_linear_40_1591" x1="146.682" y1="76.2243" x2="153.919" y2="129.063" gradientUnits="userSpaceOnUse">
<stop stop-color="#FFA246"/>
<stop offset="1" stop-color="#A47B74"/>
</linearGradient>
<linearGradient id="paint3_linear_40_1591" x1="39.9291" y1="73.182" x2="47.1659" y2="126.021" gradientUnits="userSpaceOnUse">
<stop stop-color="#FFA246"/>
<stop offset="1" stop-color="#A47B74"/>
</linearGradient>
<linearGradient id="paint4_linear_40_1591" x1="61.4893" y1="4.97914" x2="84.2468" y2="81.304" gradientUnits="userSpaceOnUse">
<stop stop-color="#FF464C"/>
<stop offset="1" stop-color="#BD86B5"/>
</linearGradient>
<linearGradient id="paint5_linear_40_1591" x1="114.422" y1="12.8425" x2="128.4" y2="59.7328" gradientUnits="userSpaceOnUse">
<stop stop-color="#FF464C"/>
<stop offset="1" stop-color="#BD86B5"/>
</linearGradient>
<linearGradient id="paint6_linear_40_1591" x1="17.2009" y1="25.0679" x2="31.1793" y2="71.9627" gradientUnits="userSpaceOnUse">
<stop stop-color="#FF464C"/>
<stop offset="1" stop-color="#BD86B5"/>
</linearGradient>
</defs>
</svg>
