<svg width="48" height="44" viewBox="0 0 48 44" fill="none" xmlns="http://www.w3.org/2000/svg">
<path d="M1.31586 36.9391C1.31586 36.9244 11.0925 36.9116 23.1525 36.9116C35.2124 36.9116 44.9909 36.9244 44.9909 36.9391C44.9909 36.9538 35.2161 36.9667 23.1525 36.9667C11.0888 36.9667 1.31586 36.9538 1.31586 36.9391Z" fill="#263239"/>
<path d="M19.4039 42.2227L19.6392 43.7651L35.1793 43.8056C35.1793 43.8056 35.3631 42.447 35.1793 42.2631C34.9955 42.0793 19.4039 42.2227 19.4039 42.2227Z" fill="#E0E0E0"/>
<path d="M35.3172 42.9948C35.3172 43.0095 31.782 43.0132 27.4231 43.0022C23.0624 42.9911 19.529 42.9691 19.529 42.9544C19.529 42.9397 23.0624 42.936 27.4231 42.947C31.782 42.9581 35.3172 42.9801 35.3172 42.9948Z" fill="#263239"/>
<path d="M35.2787 43.4011C35.2787 43.4158 31.7655 43.4287 27.4306 43.4287C23.0956 43.4287 19.5824 43.4158 19.5824 43.4011C19.5824 43.3864 23.0956 43.3735 27.4306 43.3735C31.7655 43.3735 35.2787 43.3864 35.2787 43.4011Z" fill="#263239"/>
<path d="M32.6866 37.5936L22.2923 37.6322L19.4041 42.243L35.1795 42.2834L32.6866 37.5936Z" fill="white"/>
<path d="M32.6865 37.5936C32.6865 37.5936 32.7031 37.6193 32.7325 37.6745C32.7619 37.7296 32.806 37.8105 32.863 37.9135C32.977 38.1267 33.1461 38.4392 33.3612 38.8419C33.7951 39.6526 34.4201 40.8237 35.1959 42.2742L35.2106 42.3036H35.1776C31.8372 42.2962 27.1786 42.287 22.0274 42.2778C21.134 42.276 20.257 42.2723 19.4022 42.2705H19.3525L19.3783 42.2282C20.4078 40.5865 21.3821 39.0331 22.2701 37.6175L22.2774 37.6064H22.2903C25.377 37.5991 27.9783 37.5936 29.8076 37.5899C30.7194 37.5899 31.4401 37.5899 31.9328 37.5899C32.1773 37.5899 32.3648 37.5899 32.4935 37.5899C32.556 37.5899 32.6038 37.5899 32.6369 37.5899C32.6681 37.5899 32.6847 37.5899 32.6847 37.5899C32.6847 37.5899 32.6681 37.5899 32.635 37.5917C32.6001 37.5917 32.5523 37.5917 32.4898 37.5936C32.3611 37.5936 32.1718 37.5973 31.9254 37.5991C31.4309 37.6028 30.7102 37.6083 29.7965 37.6138C27.9692 37.623 25.3733 37.6359 22.2903 37.6524L22.3105 37.6414C21.4244 39.057 20.4519 40.6104 19.4242 42.2539L19.4003 42.2117C20.2552 42.2135 21.134 42.2153 22.0256 42.219C27.1768 42.2356 31.8353 42.2503 35.1757 42.2613L35.1592 42.2907C34.3925 40.8384 33.773 39.6673 33.3447 38.8566C33.1314 38.4503 32.9659 38.1359 32.8538 37.9208C32.7987 37.8142 32.7564 37.7333 32.727 37.6763C32.6994 37.6212 32.6847 37.5917 32.6847 37.5917L32.6865 37.5936Z" fill="#263239"/>
<path d="M20.9722 42.9948L20.6835 43.5427H21.8509L21.7259 42.9948H20.9722Z" fill="#C7D75E"/>
<path d="M24.3879 42.5904L24.0992 43.1382H25.2666L25.1416 42.5904H24.3879Z" fill="#455A64"/>
<path d="M29.3 42.9948L29.1989 43.5427H30.1788L30.0538 42.9948H29.3Z" fill="#C7D75E"/>
<path d="M35.2253 42.5904C35.2253 42.6051 31.6901 42.6088 27.3312 42.5978C22.9705 42.5867 19.4371 42.5647 19.4371 42.55C19.4371 42.5353 22.9705 42.5316 27.3312 42.5426C31.6901 42.5536 35.2253 42.5757 35.2253 42.5904Z" fill="#263239"/>
<path d="M29.1273 41.1141H21.2423L21.0989 41.3256H29.1273V41.1141Z" fill="#E0E0E0"/>
<path d="M32.0429 38.0679H22.7589L22.6137 38.2793H32.1348L32.0429 38.0679Z" fill="#E0E0E0"/>
<path d="M32.2158 38.4172H25.3071L25.1619 38.6286H32.3078L32.2158 38.4172Z" fill="#E0E0E0"/>
<path d="M29.1274 41.4836H21.0733L20.9263 41.6951H29.1274V41.4836Z" fill="#E0E0E0"/>
<path d="M21.4225 40.6582H33.0909L32.3537 38.9632H22.3086L21.4225 40.6582Z" fill="#F5F4F5"/>
<path d="M21.4225 40.6582L21.5751 40.3659H32.964L33.0909 40.6582H21.4225Z" fill="#E0E0E0"/>
<path d="M32.4843 40.0258H30.3058L30.3517 39.8107H32.3611L32.4843 40.0258Z" fill="#E0E0E0"/>
<path d="M32.3078 39.6011H27.3607L27.4066 39.386H32.1846L32.3078 39.6011Z" fill="#E0E0E0"/>
<path d="M23.8382 40.0258H22.5623L22.6653 39.8107H23.9411L23.8382 40.0258Z" fill="#E0E0E0"/>
<path d="M24.0809 39.5313H22.8051L22.9062 39.3162H24.182L24.0809 39.5313Z" fill="#E0E0E0"/>
<path d="M24.1048 38.7224H22.5256L22.6414 38.5201H24.2206L24.1048 38.7224Z" fill="#C7D75E"/>
<path d="M25.1196 0.027771H9.57405C9.29382 0.027771 9.06665 0.254942 9.06665 0.535171V22.0298C9.06665 22.3101 9.29382 22.5372 9.57405 22.5372H25.1196C25.3999 22.5372 25.627 22.3101 25.627 22.0298V0.535171C25.627 0.254942 25.3999 0.027771 25.1196 0.027771Z" fill="white"/>
<path d="M25.1177 22.5389C25.1177 22.5389 25.1876 22.5462 25.3107 22.4984C25.3714 22.4745 25.4413 22.4286 25.5038 22.3532C25.5644 22.2778 25.6178 22.1712 25.6178 22.0443C25.6178 21.5296 25.6159 20.7703 25.6141 19.7941C25.6122 17.8381 25.6086 15.0106 25.6049 11.5139C25.6049 9.76562 25.603 7.85184 25.6012 5.7965C25.6012 4.76883 25.6012 3.70623 25.6012 2.61054C25.6012 2.06269 25.6012 1.50749 25.6012 0.944941C25.6012 0.805222 25.6012 0.663665 25.6012 0.522108C25.5975 0.387904 25.5332 0.255539 25.4302 0.167295C25.3788 0.123173 25.3181 0.090082 25.2519 0.0716979C25.1857 0.0514754 25.1195 0.0514754 25.046 0.0533138C24.9026 0.0533138 24.7592 0.0533138 24.614 0.0533138C19.9922 0.0533138 14.9109 0.0533138 9.57765 0.0551522C9.41955 0.0551522 9.26512 0.136042 9.17688 0.268407C9.13276 0.33459 9.10518 0.409965 9.09783 0.487178C9.09231 0.564391 9.09783 0.650796 9.09599 0.733525C9.09599 1.06444 9.09599 1.39535 9.09599 1.72443C9.09599 2.38258 9.09599 3.03705 9.09599 3.68601C9.09599 4.98576 9.09599 6.26529 9.09599 7.52276C9.09599 10.0377 9.09599 12.4644 9.09599 14.7753C9.09599 17.0862 9.09599 19.2831 9.09415 21.3384C9.09415 21.4671 9.09415 21.5939 9.09415 21.7226V21.9138C9.09415 21.9763 9.09047 22.0407 9.09966 22.0995C9.11621 22.219 9.17872 22.3311 9.27247 22.4065C9.36623 22.4837 9.48389 22.5205 9.60523 22.5168C10.1016 22.5168 10.5869 22.5168 11.0649 22.5168C12.0191 22.5168 12.9346 22.5168 13.8078 22.5168C17.3026 22.5205 20.1319 22.5242 22.0862 22.526C23.0624 22.5278 23.8216 22.5297 24.3364 22.5315C24.5938 22.5315 24.7886 22.5334 24.921 22.5334C25.0534 22.5334 25.1195 22.537 25.1195 22.537C25.1195 22.537 25.0515 22.5389 24.921 22.5407C24.7886 22.5407 24.5919 22.5407 24.3364 22.5425C23.8216 22.5425 23.0624 22.5462 22.0862 22.5481C20.1301 22.5499 17.3026 22.5536 13.8078 22.5573C12.9346 22.5573 12.0191 22.5573 11.0649 22.5573C10.5888 22.5573 10.1016 22.5573 9.60523 22.5573C9.47838 22.5609 9.34417 22.5223 9.2449 22.4378C9.14379 22.355 9.07393 22.2337 9.05554 22.1032C9.04635 22.037 9.05003 21.9745 9.05003 21.9101V21.7189C9.05003 21.5921 9.05003 21.4634 9.05003 21.3347C9.05003 19.2794 9.05003 17.0825 9.04819 14.7716C9.04819 12.4607 9.04819 10.034 9.04819 7.51909C9.04819 6.26162 9.04819 4.98208 9.04819 3.68233C9.04819 3.03337 9.04819 2.3789 9.04819 1.72075C9.04819 1.39167 9.04819 1.06076 9.04819 0.729848C9.04819 0.645281 9.04635 0.566229 9.05003 0.477986C9.05922 0.391581 9.09047 0.307014 9.13827 0.233478C9.22651 0.090082 9.39932 0 9.57581 0C14.909 0 19.9904 0 24.6121 0.00183841C24.7574 0.00183841 24.9008 0.00183841 25.0442 0.00183841C25.114 0.00183841 25.1931 0.00183841 25.2648 0.0220609C25.3365 0.0422834 25.4045 0.0790515 25.4615 0.12685C25.5755 0.222447 25.6472 0.36952 25.6508 0.518431C25.6508 0.659988 25.6508 0.801546 25.6508 0.943103C25.6508 1.50566 25.6508 2.06085 25.6508 2.6087C25.6508 3.70255 25.6508 4.76699 25.6508 5.79466C25.6508 7.85 25.649 9.76378 25.6472 11.5121C25.6435 15.0069 25.6398 17.8362 25.638 19.7923C25.6361 20.7685 25.6343 21.5278 25.6325 22.0443C25.6306 22.1749 25.5755 22.2833 25.513 22.3587C25.4486 22.4341 25.3769 22.4782 25.3144 22.5021C25.2537 22.5278 25.2023 22.5334 25.1692 22.537C25.1361 22.537 25.1195 22.537 25.1195 22.537L25.1177 22.5389Z" fill="#263239"/>
<path d="M24.0054 2.25574H10.7964V2.66203H24.0054V2.25574Z" fill="#E0E0E0"/>
<path d="M24.0054 3.63086H10.7964V4.03715H24.0054V3.63086Z" fill="#F5F4F5"/>
<path d="M24.0201 4.65668H10.745V5.06297H24.0201V4.65668Z" fill="#E0E0E0"/>
<path d="M24.0201 5.42511H10.745V5.8314H24.0201V5.42511Z" fill="#F5F4F5"/>
<path d="M24.0201 7.48413H10.745V7.89042H24.0201V7.48413Z" fill="#E0E0E0"/>
<path d="M24.0201 17.6763H10.745V18.0826H24.0201V17.6763Z" fill="#E0E0E0"/>
<path d="M24.0201 20.9119H10.745V21.3182H24.0201V20.9119Z" fill="#E0E0E0"/>
<path d="M14.8906 20.2225H10.745V20.6288H14.8906V20.2225Z" fill="#E0E0E0"/>
<path d="M17.799 20.2225H15.5837V20.6288H17.799V20.2225Z" fill="#E0E0E0"/>
<path d="M23.9833 20.2225H18.6244V20.6288H23.9833V20.2225Z" fill="#E0E0E0"/>
<path d="M23.9833 18.4355H10.7082V18.8418H23.9833V18.4355Z" fill="#F5F4F5"/>
<path d="M23.9723 19.2408H10.6971V19.6471H23.9723V19.2408Z" fill="#F5F4F5"/>
<path d="M23.9024 8.69012H13.1054V9.09641H23.9024V8.69012Z" fill="#F5F4F5"/>
<path d="M24.0349 2.95435H10.8259V3.36063H24.0349V2.95435Z" fill="#F5F4F5"/>
<path d="M14.8538 6.48956H10.745V7.05212H14.8538V6.48956Z" fill="#EE7160"/>
<path d="M10.71 1.10672C10.71 1.24644 10.5978 1.35858 10.4581 1.35858C10.3184 1.35858 10.2062 1.24644 10.2062 1.10672C10.2062 0.967001 10.3184 0.854858 10.4581 0.854858C10.5978 0.854858 10.71 0.967001 10.71 1.10672Z" fill="#E0E0E0"/>
<path d="M11.359 1.10672C11.359 1.24644 11.2469 1.35858 11.1071 1.35858C10.9674 1.35858 10.8553 1.24644 10.8553 1.10672C10.8553 0.967001 10.9674 0.854858 11.1071 0.854858C11.2469 0.854858 11.359 0.967001 11.359 1.10672Z" fill="#E0E0E0"/>
<path d="M12.008 1.10672C12.008 1.24644 11.8959 1.35858 11.7561 1.35858C11.6164 1.35858 11.5043 1.24644 11.5043 1.10672C11.5043 0.967001 11.6164 0.854858 11.7561 0.854858C11.8959 0.854858 12.008 0.967001 12.008 1.10672Z" fill="#E0E0E0"/>
<path d="M11.4381 8.58167H10.7744V9.20672H11.4381V8.58167Z" fill="#E0E0E0"/>
<path d="M23.9024 9.60565H13.1054V10.0119H23.9024V9.60565Z" fill="#F5F4F5"/>
<path d="M11.4381 9.49536H10.7744V10.1204H11.4381V9.49536Z" fill="#E0E0E0"/>
<path d="M23.9024 10.5193H13.1054V10.9256H23.9024V10.5193Z" fill="#F5F4F5"/>
<path d="M11.4381 10.4109H10.7744V11.0359H11.4381V10.4109Z" fill="#E0E0E0"/>
<path d="M23.9024 11.4349H13.1054V11.8412H23.9024V11.4349Z" fill="#F5F4F5"/>
<path d="M11.4381 11.3246H10.7744V11.9496H11.4381V11.3246Z" fill="#E0E0E0"/>
<path d="M23.8951 12.5858H10.7744V17.0071H23.8951V12.5858Z" fill="#F5F4F5"/>
<path d="M23.8951 12.5858H10.7744V13.6042H23.8951V12.5858Z" fill="#EBEBEB"/>
<path d="M23.8953 13.6042C23.8953 13.6189 20.963 13.6318 17.3469 13.6318C13.7307 13.6318 10.7985 13.6189 10.7985 13.6042C10.7985 13.5895 13.7307 13.5767 17.3469 13.5767C20.963 13.5767 23.8953 13.5895 23.8953 13.6042Z" fill="#E0E0E0"/>
<path d="M23.8953 14.7974C23.8953 14.8121 20.963 14.8249 17.3469 14.8249C13.7307 14.8249 10.7985 14.8121 10.7985 14.7974C10.7985 14.7826 13.7307 14.7698 17.3469 14.7698C20.963 14.7698 23.8953 14.7826 23.8953 14.7974Z" fill="#E0E0E0"/>
<path d="M23.8953 15.9886C23.8953 16.0033 20.963 16.0162 17.3469 16.0162C13.7307 16.0162 10.7985 16.0033 10.7985 15.9886C10.7985 15.9739 13.7307 15.9611 17.3469 15.9611C20.963 15.9611 23.8953 15.9739 23.8953 15.9886Z" fill="#E0E0E0"/>
<path d="M13.339 16.9777C13.3243 16.9777 13.3114 16.0089 13.3114 14.8139C13.3114 13.6189 13.3243 12.6501 13.339 12.6501C13.3537 12.6501 13.3666 13.6189 13.3666 14.8139C13.3666 16.0089 13.3537 16.9777 13.339 16.9777Z" fill="#E0E0E0"/>
<path d="M22.0604 16.9777C22.0456 16.9777 22.0328 16.0089 22.0328 14.8139C22.0328 13.6189 22.0456 12.6501 22.0604 12.6501C22.0751 12.6501 22.0879 13.6189 22.0879 14.8139C22.0879 16.0089 22.0751 16.9777 22.0604 16.9777Z" fill="#E0E0E0"/>
<path d="M19.0747 14.0326H14.0135V14.4095H19.0747V14.0326Z" fill="#E0E0E0"/>
<path d="M19.0747 15.1834H14.0135V15.5603H19.0747V15.1834Z" fill="#E0E0E0"/>
<path d="M12.2506 15.1742H11.2689V15.5511H12.2506V15.1742Z" fill="#E0E0E0"/>
<path d="M12.2175 14.0326H11.2358V14.4095H12.2175V14.0326Z" fill="#E0E0E0"/>
<path d="M23.4631 14.0326H22.5384V14.4095H23.4631V14.0326Z" fill="#E0E0E0"/>
<path d="M23.4631 15.1945H22.5384V15.5713H23.4631V15.1945Z" fill="#E0E0E0"/>
<path d="M21.8675 5.1496H6.32198C6.04175 5.1496 5.81458 5.37677 5.81458 5.657V27.1517C5.81458 27.4319 6.04175 27.6591 6.32198 27.6591H21.8675C22.1478 27.6591 22.3749 27.4319 22.3749 27.1517V5.657C22.3749 5.37677 22.1478 5.1496 21.8675 5.1496Z" fill="white"/>
<path d="M21.8656 27.6588C21.8656 27.6588 21.9355 27.6662 22.0587 27.6184C22.1193 27.5945 22.1892 27.5485 22.2517 27.4732C22.3124 27.3978 22.3657 27.2912 22.3657 27.1643C22.3657 26.6496 22.3638 25.8903 22.362 24.9141C22.3602 22.958 22.3565 20.1306 22.3528 16.6339C22.3528 14.8856 22.351 12.9718 22.3491 10.9165C22.3491 9.8888 22.3491 8.82621 22.3491 7.73051C22.3491 7.18267 22.3491 6.62747 22.3491 6.06492C22.3491 5.9252 22.3491 5.78364 22.3491 5.64208C22.3455 5.50788 22.2811 5.37551 22.1782 5.28727C22.1267 5.24315 22.066 5.21006 21.9998 5.19167C21.9337 5.17145 21.8675 5.17145 21.7939 5.17329C21.6505 5.17329 21.5071 5.17329 21.3619 5.17329C16.7402 5.17329 11.6588 5.17329 6.32558 5.17513C6.16747 5.17513 6.01305 5.25602 5.9248 5.38838C5.88068 5.45457 5.8531 5.52994 5.84575 5.60715C5.84024 5.68437 5.84575 5.77077 5.84391 5.8535C5.84391 6.18441 5.84391 6.51533 5.84391 6.8444C5.84391 7.50255 5.84391 8.15703 5.84391 8.80598C5.84391 10.1057 5.84391 11.3853 5.84391 12.6427C5.84391 15.1577 5.84391 17.5844 5.84391 19.8953C5.84391 22.2061 5.84391 24.403 5.84207 26.4584C5.84207 26.5871 5.84207 26.7139 5.84207 26.8426V27.0338C5.84207 27.0963 5.8384 27.1606 5.84759 27.2195C5.86413 27.339 5.92664 27.4511 6.0204 27.5265C6.11416 27.6037 6.23182 27.6405 6.35315 27.6368C6.84952 27.6368 7.33486 27.6368 7.81285 27.6368C8.76698 27.6368 9.68251 27.6368 10.5558 27.6368C14.0506 27.6405 16.8799 27.6441 18.8341 27.646C19.8103 27.6478 20.5696 27.6497 21.0843 27.6515C21.3417 27.6515 21.5366 27.6533 21.6689 27.6533C21.8013 27.6533 21.8675 27.657 21.8675 27.657C21.8675 27.657 21.7995 27.6589 21.6689 27.6607C21.5366 27.6607 21.3398 27.6607 21.0843 27.6625C20.5696 27.6625 19.8103 27.6662 18.8341 27.668C16.878 27.6699 14.0506 27.6736 10.5558 27.6772C9.68251 27.6772 8.76698 27.6772 7.81285 27.6772C7.3367 27.6772 6.84952 27.6772 6.35315 27.6772C6.2263 27.6809 6.0921 27.6423 5.99282 27.5577C5.89171 27.475 5.82185 27.3537 5.80347 27.2231C5.79428 27.157 5.79795 27.0945 5.79795 27.0301V26.8389C5.79795 26.7121 5.79795 26.5834 5.79795 26.4547C5.79795 24.3994 5.79795 22.2025 5.79611 19.8916C5.79611 17.5807 5.79611 15.154 5.79611 12.6391C5.79611 11.3816 5.79611 10.1021 5.79611 8.80231C5.79611 8.15335 5.79611 7.49887 5.79611 6.84072C5.79611 6.51165 5.79611 6.18074 5.79611 5.84982C5.79611 5.76526 5.79428 5.68621 5.79795 5.59796C5.80714 5.51156 5.8384 5.42699 5.8862 5.35345C5.98363 5.20638 6.15644 5.11446 6.33293 5.1163C11.6661 5.1163 16.7475 5.1163 21.3693 5.11814C21.5145 5.11814 21.6579 5.11814 21.8013 5.11814C21.8711 5.11814 21.9502 5.11814 22.0219 5.13836C22.0936 5.15858 22.1616 5.19535 22.2186 5.24315C22.3326 5.33875 22.4043 5.48582 22.408 5.63473C22.408 5.77629 22.408 5.91784 22.408 6.0594C22.408 6.62195 22.408 7.17715 22.408 7.725C22.408 8.81885 22.408 9.88329 22.408 10.911C22.408 12.9663 22.4061 14.8801 22.4043 16.6284C22.4006 20.1232 22.3969 22.9525 22.3951 24.9086C22.3933 25.8848 22.3914 26.6441 22.3896 27.1606C22.3877 27.2912 22.3326 27.3996 22.2701 27.475C22.2057 27.5504 22.134 27.5945 22.0715 27.6184C22.0109 27.6441 21.9594 27.6497 21.9263 27.6533C21.8932 27.6533 21.8767 27.6533 21.8767 27.6533L21.8656 27.6588Z" fill="#263239"/>
<path d="M20.7681 7.37756H13.7877V7.78385H20.7681V7.37756Z" fill="#E0E0E0"/>
<path d="M20.7681 8.75085H13.7877V9.15714H20.7681V8.75085Z" fill="#F5F4F5"/>
<path d="M20.768 9.7785H7.49286V10.1848H20.768V9.7785Z" fill="#E0E0E0"/>
<path d="M20.768 10.5451H7.49286V10.9514H20.768V10.5451Z" fill="#F5F4F5"/>
<path d="M20.768 12.606H7.49286V13.0122H20.768V12.606Z" fill="#E0E0E0"/>
<path d="M20.768 22.7963H7.49286V23.2026H20.768V22.7963Z" fill="#E0E0E0"/>
<path d="M20.768 26.0337H7.49286V26.44H20.768V26.0337Z" fill="#E0E0E0"/>
<path d="M11.6385 25.3425H7.49286V25.7488H11.6385V25.3425Z" fill="#E0E0E0"/>
<path d="M14.5468 25.3425H12.3315V25.7488H14.5468V25.3425Z" fill="#E0E0E0"/>
<path d="M20.7312 25.3425H15.3723V25.7488H20.7312V25.3425Z" fill="#E0E0E0"/>
<path d="M20.7312 23.5574H7.45605V23.9637H20.7312V23.5574Z" fill="#F5F4F5"/>
<path d="M20.7201 24.3626H7.44495V24.7689H20.7201V24.3626Z" fill="#F5F4F5"/>
<path d="M20.6503 13.812H9.85333V14.2182H20.6503V13.812Z" fill="#F5F4F5"/>
<path d="M20.7826 8.07617H13.8022V8.48246H20.7826V8.07617Z" fill="#F5F4F5"/>
<path d="M11.6017 11.6096H7.49286V12.1721H11.6017V11.6096Z" fill="#C7D75E"/>
<path d="M7.45612 6.22855C7.45612 6.36827 7.34397 6.48041 7.20425 6.48041C7.06454 6.48041 6.95239 6.36827 6.95239 6.22855C6.95239 6.08883 7.06454 5.97668 7.20425 5.97668C7.34397 5.97668 7.45612 6.08883 7.45612 6.22855Z" fill="#E0E0E0"/>
<path d="M8.10693 6.22855C8.10693 6.36827 7.99479 6.48041 7.85507 6.48041C7.71535 6.48041 7.60321 6.36827 7.60321 6.22855C7.60321 6.08883 7.71535 5.97668 7.85507 5.97668C7.99479 5.97668 8.10693 6.08883 8.10693 6.22855Z" fill="#E0E0E0"/>
<path d="M8.7558 6.22855C8.7558 6.36827 8.64366 6.48041 8.50394 6.48041C8.36422 6.48041 8.25208 6.36827 8.25208 6.22855C8.25208 6.08883 8.36422 5.97668 8.50394 5.97668C8.64366 5.97668 8.7558 6.08883 8.7558 6.22855Z" fill="#E0E0E0"/>
<path d="M8.18594 13.7017H7.52228V14.3267H8.18594V13.7017Z" fill="#E0E0E0"/>
<path d="M20.6503 14.7256H9.85333V15.1319H20.6503V14.7256Z" fill="#F5F4F5"/>
<path d="M8.18594 14.6172H7.52228V15.2422H8.18594V14.6172Z" fill="#E0E0E0"/>
<path d="M20.6503 15.6412H9.85333V16.0475H20.6503V15.6412Z" fill="#F5F4F5"/>
<path d="M8.18594 15.5309H7.52228V16.1559H8.18594V15.5309Z" fill="#E0E0E0"/>
<path d="M20.6503 16.5549H9.85333V16.9612H20.6503V16.5549Z" fill="#F5F4F5"/>
<path d="M8.18594 16.4464H7.52228V17.0715H8.18594V16.4464Z" fill="#E0E0E0"/>
<path d="M20.643 17.7076H7.52228V22.129H20.643V17.7076Z" fill="#F5F4F5"/>
<path d="M20.643 17.7076H7.52228V18.7261H20.643V17.7076Z" fill="#EBEBEB"/>
<path d="M20.643 18.726C20.643 18.7407 17.7107 18.7536 14.0945 18.7536C10.4784 18.7536 7.54614 18.7407 7.54614 18.726C7.54614 18.7113 10.4784 18.6984 14.0945 18.6984C17.7107 18.6984 20.643 18.7113 20.643 18.726Z" fill="#E0E0E0"/>
<path d="M20.643 19.9173C20.643 19.9321 17.7107 19.9449 14.0945 19.9449C10.4784 19.9449 7.54614 19.9321 7.54614 19.9173C7.54614 19.9026 10.4784 19.8898 14.0945 19.8898C17.7107 19.8898 20.643 19.9026 20.643 19.9173Z" fill="#E0E0E0"/>
<path d="M20.643 21.1105C20.643 21.1252 17.7107 21.138 14.0945 21.138C10.4784 21.138 7.54614 21.1252 7.54614 21.1105C7.54614 21.0958 10.4784 21.0829 14.0945 21.0829C17.7107 21.0829 20.643 21.0958 20.643 21.1105Z" fill="#E0E0E0"/>
<path d="M10.0851 22.0977C10.0704 22.0977 10.0575 21.1289 10.0575 19.9339C10.0575 18.7389 10.0704 17.7701 10.0851 17.7701C10.0998 17.7701 10.1126 18.7389 10.1126 19.9339C10.1126 21.1289 10.0998 22.0977 10.0851 22.0977Z" fill="#E0E0E0"/>
<path d="M18.8082 22.0977C18.7935 22.0977 18.7806 21.1289 18.7806 19.9339C18.7806 18.7389 18.7935 17.7701 18.8082 17.7701C18.8229 17.7701 18.8358 18.7389 18.8358 19.9339C18.8358 21.1289 18.8229 22.0977 18.8082 22.0977Z" fill="#E0E0E0"/>
<path d="M15.8227 19.1525H10.7615V19.5294H15.8227V19.1525Z" fill="#E0E0E0"/>
<path d="M15.8227 20.3052H10.7615V20.6821H15.8227V20.3052Z" fill="#E0E0E0"/>
<path d="M8.99856 20.2942H8.01685V20.6711H8.99856V20.2942Z" fill="#E0E0E0"/>
<path d="M8.96364 19.1525H7.98193V19.5294H8.96364V19.1525Z" fill="#E0E0E0"/>
<path d="M20.211 19.1525H19.2863V19.5294H20.211V19.1525Z" fill="#E0E0E0"/>
<path d="M20.211 20.3144H19.2863V20.6913H20.211V20.3144Z" fill="#E0E0E0"/>
<path d="M41.5274 2.25592H29.8131C29.6273 2.25592 29.4767 2.40654 29.4767 2.59235V18.7593C29.4767 18.9451 29.6273 19.0957 29.8131 19.0957H41.5274C41.7132 19.0957 41.8639 18.9451 41.8639 18.7593V2.59235C41.8639 2.40654 41.7132 2.25592 41.5274 2.25592Z" fill="white"/>
<path d="M41.5272 19.0955C41.5272 19.0955 41.5805 19.1011 41.6706 19.0606C41.7147 19.0404 41.7662 19.0018 41.8048 18.9411C41.8471 18.8805 41.8636 18.7959 41.8581 18.7003C41.8581 18.3142 41.8544 17.7462 41.8526 17.0145C41.8508 15.5493 41.8471 13.4314 41.8434 10.8135C41.8434 9.50457 41.8416 8.07062 41.8397 6.53003C41.8397 5.75974 41.8397 4.96371 41.8397 4.14378C41.8397 3.73381 41.8397 3.31833 41.8397 2.8955C41.8397 2.79071 41.8397 2.68592 41.8397 2.57929C41.8361 2.48002 41.7827 2.38626 41.7 2.33111C41.6577 2.30353 41.6099 2.28699 41.5621 2.28147C41.5143 2.27779 41.4555 2.28147 41.404 2.28147C41.2974 2.28147 41.1889 2.28147 41.0805 2.28147C37.6187 2.28147 33.8132 2.28147 29.8184 2.28331C29.7026 2.28331 29.5904 2.35133 29.5408 2.45428C29.5132 2.50576 29.5059 2.56091 29.5077 2.62341V2.80909C29.5077 3.05728 29.5077 3.30546 29.5077 3.55181C29.5077 4.0445 29.5077 4.53536 29.5077 5.02254C29.5077 5.99505 29.5077 6.9547 29.5077 7.89597C29.5077 9.78033 29.5077 11.5967 29.5077 13.3285C29.5077 15.0602 29.5077 16.7038 29.5059 18.2444C29.5077 18.4356 29.5003 18.6323 29.5095 18.8124C29.5242 18.8988 29.5776 18.9797 29.6511 19.0257C29.6879 19.0496 29.7301 19.0643 29.7724 19.0716C29.8147 19.0772 29.8625 19.0753 29.9085 19.0753C30.2798 19.0753 30.6438 19.0753 31.0023 19.0753C31.7175 19.0753 32.4032 19.0753 33.0577 19.0753C35.6756 19.079 37.7934 19.0827 39.2586 19.0845C39.9903 19.0864 40.5584 19.0882 40.9444 19.09C41.1356 19.09 41.2827 19.0919 41.3838 19.0919C41.4831 19.0919 41.5327 19.0955 41.5327 19.0955C41.5327 19.0955 41.4812 19.0974 41.3838 19.0992C41.2845 19.0992 41.1375 19.0992 40.9444 19.1011C40.5584 19.1011 39.9903 19.1047 39.2586 19.1066C37.7934 19.1084 35.6756 19.1121 33.0577 19.1158C32.4032 19.1158 31.7175 19.1158 31.0023 19.1158C30.6457 19.1158 30.2798 19.1158 29.9085 19.1158C29.8625 19.1158 29.8165 19.1176 29.7651 19.1121C29.7154 19.1047 29.6676 19.0882 29.6254 19.0606C29.5408 19.0073 29.4783 18.9172 29.4636 18.8179C29.4544 18.7665 29.4581 18.7187 29.4581 18.6727V18.5293C29.4581 18.4337 29.4581 18.3381 29.4581 18.2425C29.4581 16.7038 29.4581 15.0584 29.4562 13.3266C29.4562 11.5948 29.4562 9.7785 29.4562 7.89413C29.4562 6.95286 29.4562 5.99322 29.4562 5.0207C29.4562 4.53352 29.4562 4.0445 29.4562 3.54997C29.4562 3.30362 29.4562 3.05544 29.4562 2.80726V2.62158C29.4544 2.55907 29.4636 2.48737 29.4948 2.42854C29.5537 2.30721 29.686 2.22632 29.8221 2.22632C33.8169 2.22632 37.6224 2.22632 41.0841 2.22816C41.1926 2.22816 41.3011 2.22816 41.4077 2.22816C41.4629 2.22816 41.5125 2.22632 41.5713 2.23C41.6283 2.23551 41.6835 2.25573 41.7331 2.28699C41.8287 2.34949 41.893 2.4598 41.8967 2.57378C41.8967 2.68041 41.8967 2.78703 41.8967 2.89182C41.8967 3.31282 41.8967 3.73014 41.8967 4.1401C41.8967 4.96003 41.8967 5.75606 41.8967 6.52635C41.8967 8.0651 41.8949 9.49906 41.893 10.8098C41.8894 13.4277 41.8857 15.5456 41.8839 17.0108C41.882 17.7425 41.8802 18.3105 41.8783 18.6966C41.8839 18.7922 41.8636 18.8823 41.8213 18.943C41.7791 19.0055 41.7276 19.0422 41.6816 19.0625C41.6357 19.0827 41.5989 19.09 41.5732 19.0919C41.5474 19.0919 41.5346 19.0919 41.5346 19.0919L41.5272 19.0955Z" fill="#263239"/>
<path d="M40.6522 3.92316H30.7542V4.22649H40.6522V3.92316Z" fill="#E0E0E0"/>
<path d="M40.6522 4.9527H30.7542V5.25603H40.6522V4.9527Z" fill="#F5F4F5"/>
<path d="M40.6632 5.7193H30.7321V6.02264H40.6632V5.7193Z" fill="#E0E0E0"/>
<path d="M40.6632 6.29291H30.7321V6.59625H40.6632V6.29291Z" fill="#F5F4F5"/>
<path d="M40.6632 7.83533H30.7321V8.13866H40.6632V7.83533Z" fill="#E0E0E0"/>
<path d="M40.6632 15.4592H30.7321V15.7625H40.6632V15.4592Z" fill="#E0E0E0"/>
<path d="M40.6632 17.8804H30.7321V18.1837H40.6632V17.8804Z" fill="#E0E0E0"/>
<path d="M33.8335 17.3638H30.7321V17.6671H33.8335V17.3638Z" fill="#E0E0E0"/>
<path d="M36.0084 17.3638H34.352V17.6671H36.0084V17.3638Z" fill="#E0E0E0"/>
<path d="M40.6357 17.3638H36.6261V17.6671H40.6357V17.3638Z" fill="#E0E0E0"/>
<path d="M40.6357 16.0272H30.7046V16.3306H40.6357V16.0272Z" fill="#F5F4F5"/>
<path d="M40.6265 16.6302H30.6954V16.9336H40.6265V16.6302Z" fill="#F5F4F5"/>
<path d="M40.575 8.73798H32.4988V9.04131H40.575V8.73798Z" fill="#F5F4F5"/>
<path d="M40.6743 4.44714H30.7763V4.75048H40.6743V4.44714Z" fill="#F5F4F5"/>
<path d="M33.8059 7.09076H30.7321V7.51175H33.8059V7.09076Z" fill="#C7D75E"/>
<path d="M30.7045 3.0646C30.7045 3.16939 30.62 3.25396 30.5152 3.25396C30.4104 3.25396 30.3258 3.16939 30.3258 3.0646C30.3258 2.95981 30.4104 2.87524 30.5152 2.87524C30.62 2.87524 30.7045 2.95981 30.7045 3.0646Z" fill="#E0E0E0"/>
<path d="M31.1919 3.0646C31.1919 3.16939 31.1073 3.25396 31.0025 3.25396C30.8977 3.25396 30.8132 3.16939 30.8132 3.0646C30.8132 2.95981 30.8977 2.87524 31.0025 2.87524C31.1073 2.87524 31.1919 2.95981 31.1919 3.0646Z" fill="#E0E0E0"/>
<path d="M31.6771 3.0646C31.6771 3.16939 31.5925 3.25396 31.4878 3.25396C31.383 3.25396 31.2984 3.16939 31.2984 3.0646C31.2984 2.95981 31.383 2.87524 31.4878 2.87524C31.5925 2.87524 31.6771 2.95981 31.6771 3.0646Z" fill="#E0E0E0"/>
<path d="M31.2506 8.65521H30.7542V9.12217H31.2506V8.65521Z" fill="#E0E0E0"/>
<path d="M40.575 9.42188H32.4988V9.72521H40.575V9.42188Z" fill="#F5F4F5"/>
<path d="M31.2506 9.33911H30.7542V9.80607H31.2506V9.33911Z" fill="#E0E0E0"/>
<path d="M40.575 10.1057H32.4988V10.409H40.575V10.1057Z" fill="#F5F4F5"/>
<path d="M31.2506 10.023H30.7542V10.49H31.2506V10.023Z" fill="#E0E0E0"/>
<path d="M40.575 10.7896H32.4988V11.0929H40.575V10.7896Z" fill="#F5F4F5"/>
<path d="M31.2506 10.7069H30.7542V11.1739H31.2506V10.7069Z" fill="#E0E0E0"/>
<path d="M40.5695 11.6519H30.7542V14.9592H40.5695V11.6519Z" fill="#F5F4F5"/>
<path d="M40.5695 11.6519H30.7542V12.413H40.5695V11.6519Z" fill="#EBEBEB"/>
<path d="M40.5695 12.413C40.5695 12.4277 38.3763 12.4405 35.6702 12.4405C32.964 12.4405 30.7708 12.4277 30.7708 12.413C30.7708 12.3982 32.964 12.3854 35.6702 12.3854C38.3763 12.3854 40.5695 12.3982 40.5695 12.413Z" fill="#E0E0E0"/>
<path d="M40.5695 13.3046C40.5695 13.3193 38.3763 13.3321 35.6702 13.3321C32.964 13.3321 30.7708 13.3193 30.7708 13.3046C30.7708 13.2898 32.964 13.277 35.6702 13.277C38.3763 13.277 40.5695 13.2898 40.5695 13.3046Z" fill="#E0E0E0"/>
<path d="M40.5695 14.198C40.5695 14.2128 38.3763 14.2256 35.6702 14.2256C32.964 14.2256 30.7708 14.2128 30.7708 14.198C30.7708 14.1833 32.964 14.1705 35.6702 14.1705C38.3763 14.1705 40.5695 14.1833 40.5695 14.198Z" fill="#E0E0E0"/>
<path d="M32.6717 14.9371C32.657 14.9371 32.6442 14.2128 32.6442 13.3175C32.6442 12.4221 32.657 11.6978 32.6717 11.6978C32.6864 11.6978 32.6993 12.4221 32.6993 13.3175C32.6993 14.2128 32.6864 14.9371 32.6717 14.9371Z" fill="#E0E0E0"/>
<path d="M39.1962 14.9371C39.1814 14.9371 39.1686 14.2128 39.1686 13.3175C39.1686 12.4221 39.1814 11.6978 39.1962 11.6978C39.2109 11.6978 39.2237 12.4221 39.2237 13.3175C39.2237 14.2128 39.2109 14.9371 39.1962 14.9371Z" fill="#E0E0E0"/>
<path d="M36.9626 12.7328H33.1774V13.0141H36.9626V12.7328Z" fill="#E0E0E0"/>
<path d="M36.9626 13.595H33.1774V13.8763H36.9626V13.595Z" fill="#E0E0E0"/>
<path d="M31.8592 13.5877H31.1238V13.869H31.8592V13.5877Z" fill="#E0E0E0"/>
<path d="M31.8334 12.7328H31.098V13.0141H31.8334V12.7328Z" fill="#E0E0E0"/>
<path d="M40.2459 12.7328H39.5547V13.0141H40.2459V12.7328Z" fill="#E0E0E0"/>
<path d="M40.2459 13.6024H39.5547V13.8837H40.2459V13.6024Z" fill="#E0E0E0"/>
<path d="M14.5064 42.1381L19.4756 39.2941V38.8327L4.63781 38.7941L3.69287 42.083L14.5064 42.1381Z" fill="#455A64"/>
<g opacity="0.3">
<path d="M14.7343 40.8384C14.7343 40.8384 17.3302 39.5129 17.2364 39.4044C17.1408 39.2959 14.4365 39.4044 14.4365 39.4044L14.7343 40.8384Z" fill="black"/>
</g>
<path d="M23.9338 25.644L25.1803 22.8018L29.8976 22.1234L31.4217 25.8296L27.9011 31.5416L23.9338 25.644Z" fill="#F9BE9D"/>
<path d="M32.0686 11.9533C32.03 11.6592 31.8002 11.4 31.5134 11.3246C31.2266 11.2492 30.8994 11.365 30.7211 11.6022C30.6733 11.1628 30.0243 11.0323 29.6713 11.3007C29.3184 11.5673 29.2007 12.0379 29.1051 12.4699L28.7282 12.5692C28.2411 12.5821 27.7759 12.9001 27.5884 13.3487C27.4009 13.7973 27.5002 14.3525 27.8329 14.7073C27.5222 15.1099 27.5057 15.7166 27.7962 16.1357C28.0848 16.5549 28.6565 16.7553 29.1437 16.6082C29.0187 17.2774 29.436 18.009 30.0776 18.2389C30.7192 18.4705 31.5061 18.1745 31.837 17.5789C32.2708 17.6837 32.7599 17.5108 33.0319 17.1579C33.3059 16.8049 33.35 16.2901 33.1422 15.8949C33.5761 15.711 33.8905 15.2717 33.9236 14.801C33.9567 14.3304 33.7103 13.8506 33.3077 13.6061C33.6754 13.2604 33.7305 12.6299 33.4272 12.2254C33.1239 11.821 32.5043 11.6978 32.0686 11.9533Z" fill="#263239"/>
<path d="M30.7965 15.0308C31.0943 14.5198 30.4803 13.6373 30.0078 13.2807C30.2008 12.9626 30.153 12.6354 29.8828 12.3799C29.6126 12.1243 29.6217 12.0563 29.2669 11.946C28.9746 11.1261 27.9488 10.6536 27.1362 10.9643C26.6159 10.3778 25.671 10.3962 24.9522 10.7106C24.7775 10.7878 24.6029 10.8797 24.4135 10.9036C24.2738 10.9202 24.1323 10.8999 23.9925 10.8999C23.2204 10.8963 22.5347 11.5287 22.3288 12.2732C22.2957 12.3927 21.985 12.7402 21.9225 12.8468C21.8398 12.9865 21.7129 13.0582 21.6467 13.2071C21.4206 13.7201 21.7405 13.891 21.7717 14.2403C21.7975 14.5363 21.6853 14.5253 21.5953 14.8084C21.5511 14.95 21.4519 15.0731 21.4206 15.2202C21.3324 15.643 21.8361 15.9997 21.8067 16.4317C21.8012 16.52 21.7717 16.6045 21.7589 16.6928C21.7331 16.8711 21.7736 17.0586 21.8729 17.2094C21.9482 17.327 22.0604 17.4281 22.0861 17.5642C22.1063 17.669 22.0714 17.7737 22.064 17.8785C22.0457 18.1359 22.713 19.0349 22.9465 19.1434L29.4416 18.3639C29.9196 18.2003 30.2615 17.7039 30.245 17.1983C30.2413 17.1138 30.2321 17.0237 30.2744 16.952C30.3111 16.8895 30.3792 16.8564 30.4362 16.8141C30.8241 16.5365 30.802 15.9556 30.6972 15.4886C30.6825 15.4224 30.6678 15.3562 30.6752 15.2901C30.688 15.1926 30.7487 15.1117 30.7965 15.0272V15.0308Z" fill="#263239"/>
<path d="M25.1323 10.6867C25.1323 10.6867 25.3143 10.5709 25.6911 10.4955C25.8787 10.4624 26.1158 10.4422 26.3842 10.5029C26.6508 10.558 26.9376 10.7124 27.1692 10.968L27.1269 10.957C27.4762 10.8209 27.9174 10.8172 28.3329 10.9827C28.7429 11.1445 29.1418 11.4791 29.3183 11.957L29.2871 11.9276C29.3992 11.9644 29.5187 12.003 29.6235 12.0839C29.7264 12.1648 29.8 12.2585 29.8901 12.3413C29.9801 12.424 30.0721 12.5288 30.1254 12.652C30.1787 12.7751 30.1971 12.9167 30.1713 13.0509C30.1511 13.1575 30.1107 13.255 30.0592 13.3377L30.0463 13.2715C30.3791 13.5381 30.6346 13.869 30.8037 14.2293C30.8846 14.4113 30.9398 14.6062 30.9269 14.8066C30.9232 14.9059 30.8883 15.0033 30.8424 15.0897C30.7946 15.1706 30.7449 15.2423 30.7302 15.3177C30.7155 15.3912 30.7412 15.4739 30.7578 15.5603C30.7762 15.6467 30.789 15.7331 30.7982 15.8177C30.8166 15.9887 30.8185 16.1578 30.7909 16.3177C30.7651 16.4795 30.7008 16.6303 30.6015 16.7516C30.55 16.8086 30.4931 16.8601 30.4324 16.8987C30.3736 16.9373 30.3202 16.9722 30.3 17.0237C30.278 17.0752 30.2816 17.1395 30.2835 17.2039C30.2835 17.2682 30.2835 17.3325 30.2761 17.3951C30.2614 17.5182 30.2265 17.6304 30.1824 17.7296C30.096 17.93 29.9691 18.0734 29.857 18.1745C29.7411 18.2738 29.6364 18.3308 29.5628 18.3602C29.5279 18.3768 29.4966 18.3841 29.4783 18.3896C29.458 18.3951 29.4488 18.397 29.4488 18.397C29.4415 18.386 29.6125 18.3473 29.8312 18.147C29.9379 18.0459 30.0537 17.9025 30.1327 17.7094C30.1713 17.6138 30.2026 17.5054 30.2136 17.3877C30.221 17.3289 30.221 17.27 30.2173 17.2075C30.2155 17.145 30.2081 17.0733 30.2357 16.9998C30.2651 16.9226 30.335 16.8766 30.3919 16.8399C30.4489 16.8012 30.4986 16.7571 30.5445 16.7038C30.6309 16.5953 30.6879 16.4575 30.7118 16.3049C30.7376 16.1541 30.7339 15.9923 30.7137 15.8287C30.7045 15.746 30.6898 15.6633 30.6714 15.5787C30.6567 15.4978 30.6236 15.4059 30.6401 15.3011C30.6585 15.1982 30.7173 15.1191 30.7615 15.0419C30.7982 14.9665 30.8295 14.8875 30.8313 14.7992C30.8424 14.6246 30.7909 14.4407 30.7137 14.2698C30.5519 13.9278 30.3 13.6024 29.9857 13.3506L29.9507 13.323L29.9728 13.2862C30.0187 13.2108 30.0555 13.1244 30.0721 13.0325C30.1199 12.7954 30.004 12.5674 29.822 12.413C29.732 12.3284 29.6511 12.231 29.5647 12.1629C29.4783 12.0949 29.368 12.0582 29.2595 12.0214L29.2356 12.014L29.2282 11.992C29.0665 11.5452 28.6914 11.2235 28.3017 11.0673C27.9083 10.9073 27.4891 10.9073 27.1563 11.0305L27.1306 11.0397L27.1141 11.0195C26.8971 10.7731 26.6269 10.6224 26.3732 10.5635C26.1176 10.501 25.886 10.5139 25.7022 10.5396C25.3326 10.6003 25.1415 10.7014 25.1359 10.6885L25.1323 10.6867Z" fill="#455A64"/>
<path d="M29.0206 15.2533C28.8827 14.1043 27.9837 12.8836 26.7667 12.4791C26.0001 12.2236 25.4393 12.299 25.0551 12.3063C24.1947 12.3229 23.5697 12.8358 23.5697 12.8358C23.2241 12.9681 22.0787 14.347 22.189 15.6559C22.3104 17.1119 22.5181 18.8841 22.8472 19.9339C23.5108 22.0462 25.2095 22.0775 25.2095 22.0775C25.2095 22.0738 25.2849 23.1143 25.2849 23.1143L27.4745 24.6935L29.5059 22.3201L29.0206 15.2551V15.2533Z" fill="#F9BE9D"/>
<path d="M23.2737 17.5807C23.2903 17.7278 23.4281 17.8362 23.5826 17.8215C23.737 17.8068 23.8473 17.6763 23.8308 17.5292C23.8142 17.3821 23.6763 17.2737 23.5219 17.2884C23.3675 17.3031 23.2553 17.4336 23.2719 17.5807H23.2737Z" fill="#263239"/>
<path d="M22.8085 16.4005C22.849 16.4317 23.0347 16.2442 23.3343 16.2019C23.6322 16.1541 23.8748 16.2755 23.9006 16.235C23.9134 16.2166 23.8693 16.156 23.7645 16.1008C23.6597 16.0457 23.4906 16.0015 23.3049 16.0309C23.1192 16.0604 22.9722 16.1504 22.8931 16.235C22.8122 16.3196 22.7902 16.3894 22.8104 16.4023L22.8085 16.4005Z" fill="#263239"/>
<path d="M24.9044 18.4999C24.9044 18.4834 24.7132 18.4778 24.4062 18.4834C24.329 18.487 24.2536 18.4834 24.2334 18.4319C24.2077 18.3786 24.2279 18.2922 24.2518 18.1984C24.2959 18.0035 24.3419 17.7995 24.3915 17.5844C24.5827 16.7111 24.7095 15.9978 24.6728 15.9905C24.6378 15.9831 24.454 16.6854 24.2628 17.5568C24.2168 17.7719 24.1746 17.976 24.1323 18.1727C24.1157 18.2627 24.0808 18.3694 24.1378 18.4778C24.1672 18.5312 24.2297 18.5642 24.2793 18.5716C24.3308 18.579 24.3731 18.5734 24.4117 18.5716C24.7169 18.544 24.9044 18.5164 24.9026 18.4999H24.9044Z" fill="#263239"/>
<path d="M25.2113 22.0774C25.2113 22.0774 26.6894 21.9414 28.0038 20.8622C28.0038 20.8622 27.4468 22.5003 25.2517 22.6179L25.2131 22.0793L25.2113 22.0774Z" fill="#F3986E"/>
<path d="M22.7223 15.1246C22.794 15.1779 22.9981 15.0603 23.261 14.9959C23.522 14.9242 23.7592 14.9297 23.7941 14.8488C23.8088 14.8102 23.7592 14.7514 23.647 14.7091C23.5367 14.6687 23.3639 14.654 23.1838 14.6999C23.0036 14.7459 22.8602 14.8433 22.783 14.9316C22.7058 15.0216 22.6911 15.097 22.7223 15.1246Z" fill="#263239"/>
<path d="M26.2906 17.2406C26.3126 17.3877 26.206 17.5256 26.0534 17.5513C25.9008 17.577 25.7593 17.4778 25.739 17.3307C25.717 17.1836 25.8236 17.0457 25.9762 17.02C26.1288 16.9943 26.2703 17.0935 26.2924 17.2406H26.2906Z" fill="#263239"/>
<path d="M26.912 15.9133C26.8808 15.9537 26.6528 15.8195 26.3532 15.8545C26.0535 15.8839 25.8494 16.0622 25.8127 16.0291C25.7943 16.0144 25.8237 15.9446 25.9119 15.8655C25.9983 15.7865 26.1528 15.7 26.3384 15.6798C26.526 15.6596 26.6896 15.7111 26.7889 15.7717C26.8881 15.8324 26.9267 15.8949 26.912 15.9133Z" fill="#263239"/>
<path d="M26.7778 14.3892C26.7263 14.4646 26.4873 14.4187 26.2079 14.4462C25.9285 14.4646 25.6987 14.5492 25.6362 14.483C25.6086 14.4518 25.638 14.3782 25.7336 14.3028C25.8274 14.2275 25.9928 14.1558 26.184 14.1411C26.3752 14.1264 26.548 14.1686 26.6528 14.2275C26.7594 14.2863 26.798 14.3525 26.776 14.3892H26.7778Z" fill="#263239"/>
<path d="M28.9746 17.3417C28.9507 17.18 29.0812 16.7737 29.2375 16.724C29.6529 16.5953 30.4232 16.5163 30.5905 17.5936C30.8185 19.068 29.0205 19.0367 29.0113 18.9945C29.004 18.9614 29.0573 17.8969 28.9764 17.3399L28.9746 17.3417Z" fill="#F9BE9D"/>
<path d="M29.5299 18.3749C29.5299 18.3749 29.5574 18.3896 29.6052 18.4025C29.6512 18.4153 29.7247 18.4172 29.7983 18.3767C29.9453 18.2958 30.0373 18.0274 30.0042 17.7609C29.9876 17.6267 29.9398 17.5035 29.8755 17.4042C29.813 17.3031 29.7321 17.2388 29.6512 17.2369C29.5703 17.2314 29.5225 17.2866 29.5096 17.3307C29.4968 17.3748 29.5096 17.4024 29.5023 17.406C29.4986 17.4097 29.4674 17.3858 29.4692 17.3233C29.4692 17.2939 29.4821 17.2553 29.5133 17.2222C29.5446 17.1873 29.5942 17.1652 29.6494 17.1634C29.7652 17.1542 29.8828 17.2424 29.9527 17.3509C30.0299 17.4575 30.0869 17.5972 30.1053 17.748C30.142 18.0458 30.0336 18.3473 29.8295 18.4429C29.7302 18.4852 29.6383 18.4686 29.5887 18.4392C29.5372 18.4098 29.5243 18.3786 29.5299 18.3749Z" fill="#F3986E"/>
<path d="M21.8655 15.7129C22.1357 15.4831 22.2883 15.2018 22.2184 14.8525C22.4243 14.8819 22.588 14.5988 22.678 14.4095C22.7681 14.2219 22.8968 14.1135 22.8582 13.9094C22.8509 13.869 22.8417 13.8267 22.8545 13.7881C22.8766 13.7274 22.9428 13.698 23.0016 13.6704C23.3013 13.5252 23.5164 13.22 23.5513 12.8873C23.8877 12.9792 24.248 12.9847 24.5863 12.9056C24.772 13.1042 25.0625 13.1998 25.329 13.1483C25.5956 13.0968 25.8309 12.902 25.9302 12.6483C26.046 12.8192 26.2556 12.9093 26.4615 12.9314C26.6674 12.9534 26.8751 12.913 27.0774 12.8744C27.0479 13.2844 27.3697 13.6888 27.7759 13.7513C27.8311 13.7605 27.8936 13.766 27.9249 13.812C27.9579 13.8598 27.9396 13.9241 27.9249 13.9793C27.8458 14.3359 28.1326 14.7275 28.4948 14.7606C28.2815 14.983 28.3698 15.4114 28.6547 15.5327C28.7135 15.5566 28.7889 15.586 28.7889 15.6485C28.7889 15.6724 28.7779 15.6945 28.765 15.7166C28.6768 15.8783 28.5904 16.0548 28.6032 16.2387C28.6161 16.4225 28.7705 16.61 28.9544 16.5898C28.8716 16.6891 28.7981 16.8123 28.8146 16.9409C28.8312 17.0696 28.9599 17.4686 29.0886 17.4686C29.4213 17.4704 29.8552 16.8362 29.8809 16.7884C30.2155 16.1596 29.5978 15.6118 29.4526 14.915C29.3073 14.2183 28.9617 13.5748 28.5223 13.0159C28.3367 12.7825 28.1344 12.56 27.8936 12.3817C27.6197 12.1795 27.3072 12.0398 26.9946 11.9037C26.5883 11.7272 26.171 11.5507 25.728 11.514C24.9044 11.4441 24.1194 11.8541 23.4281 12.3063C23.1652 12.4791 22.9042 12.6611 22.6964 12.8965C22.4482 13.1796 22.2846 13.5252 22.1504 13.8782C21.9555 14.3856 21.8122 14.9242 21.8379 15.4665" fill="#263239"/>
<path d="M25.8861 18.8327C25.7298 18.7279 25.5018 18.7518 25.3695 18.886C25.2371 19.0184 25.2132 19.2445 25.3106 19.4063C25.4081 19.5662 25.6177 19.6489 25.7997 19.6011C25.9817 19.5533 26.1232 19.3824 26.1379 19.1949C26.149 19.0607 26.0865 18.9099 25.9596 18.8639" fill="#F3986E"/>
<path d="M25.9449 18.522C25.8953 18.5238 25.9284 18.8511 25.671 19.1121C25.4136 19.3732 25.0606 19.3713 25.0625 19.4173C25.0606 19.4375 25.147 19.4724 25.2941 19.4614C25.4393 19.4522 25.6452 19.3842 25.8033 19.2243C25.9596 19.0643 26.0148 18.8658 26.0129 18.7316C26.0129 18.5937 25.967 18.5165 25.9449 18.5201V18.522Z" fill="#263239"/>
<path d="M20.3911 13.9039C20.5584 14.5455 21.2147 15.0235 21.8784 14.983C22.5402 14.9444 23.1359 14.3929 23.2278 13.7348C23.487 13.9554 23.8896 13.9829 24.1764 13.7991C24.4614 13.6153 24.6066 13.2365 24.5147 12.9111C24.9688 13.0637 25.4982 12.7898 25.706 12.3578C25.9137 11.9258 25.8291 11.3908 25.5662 10.99C25.2868 10.5617 24.8143 10.2675 24.3069 10.205C23.7995 10.1425 23.2701 10.3135 22.895 10.6609C22.2056 10.3227 21.2552 10.7804 21.0916 11.5305C20.3507 11.8026 19.9904 12.8045 20.3874 13.4866" fill="#263239"/>
<path d="M24.3216 11.1739C24.3216 11.1739 24.3455 11.1334 24.4135 11.0856C24.4797 11.0378 24.5882 10.979 24.7334 10.9459C24.8786 10.9128 25.0625 10.9091 25.2518 10.968C25.4393 11.0268 25.6416 11.15 25.7556 11.3632C25.8456 11.525 25.8144 11.7566 25.6581 11.8578L25.6618 11.7805C25.7978 11.889 25.8806 12.0342 25.9173 12.1684C25.9559 12.3045 25.9541 12.4313 25.9357 12.5306C25.8953 12.7347 25.8015 12.8229 25.7978 12.8174C25.785 12.8101 25.8567 12.7126 25.8769 12.5233C25.8989 12.3413 25.8456 12.0434 25.6048 11.8559L25.5515 11.8155L25.6066 11.7787C25.7078 11.7107 25.7408 11.5416 25.6673 11.4092C25.5735 11.2327 25.3934 11.1132 25.2243 11.0581C25.0533 10.9992 24.8823 10.9955 24.7463 11.0176C24.4687 11.0617 24.3326 11.1923 24.3216 11.1757V11.1739Z" fill="#455A64"/>
<path d="M24.5993 25.1825C24.8971 25.6991 27.6768 30.3209 27.6768 30.3209C27.6768 30.3209 30.872 23.6548 30.872 23.778C30.872 23.9012 33.3851 32.7678 33.3851 32.7678L33.0394 36.9134H23.6967L24.6012 25.1825H24.5993Z" fill="#425FA9"/>
<path d="M34.7657 23.721C34.7657 23.8313 35.5765 26.6661 35.5765 26.6661C35.5765 26.6661 36.1648 27.1074 36.2034 27.6239C36.2401 28.1387 36.2034 28.3979 36.2034 28.3979C36.2034 28.3979 38.8176 31.343 38.8176 31.8229V32.6704C38.8176 32.6704 42.5367 34.1797 42.4999 35.064C42.4631 35.9483 41.0347 37.1984 40.4446 37.2719C39.8563 37.3454 38.0675 36.4961 37.6245 36.2387C37.1832 35.9813 33.6848 33.0785 33.6848 33.0785L34.7657 23.7228V23.721Z" fill="#C7D75E"/>
<path d="M29.6034 21.7723C29.699 21.8679 31.0631 22.8422 31.0631 22.8422L34.7657 23.7192L33.8869 37.0035L30.6697 36.9116C30.6697 36.9116 30.0042 24.9766 29.7799 24.0795C29.5556 23.1823 29.6016 21.7723 29.6016 21.7723H29.6034Z" fill="#C7D75E"/>
<path d="M25.1637 22.3127L23.9338 23.2853L19.9518 23.8864L20.689 36.9115H23.9265C23.9265 36.9115 24.8567 26.7396 24.888 25.8737C24.9192 25.0078 25.217 23.0518 25.217 23.0518L25.1637 22.3127Z" fill="#C7D75E"/>
<path d="M17.753 28.8263C17.753 28.6553 18.2641 27.7012 18.299 27.5982C18.3339 27.4952 18.1961 27.2232 18.47 26.5742C18.7421 25.9253 19.3156 23.6567 19.9499 23.8865C20.5841 24.1181 20.415 32.1041 20.415 32.1041L20.4665 32.6391C20.4665 32.6391 18.606 34.8323 18.1979 35.0015C17.7879 35.1724 15.273 36.9355 15.1369 37.0017C14.3648 37.3767 12.1477 35.4647 12.2231 35.1412L13.5596 33.9536C13.5596 33.9536 14.9935 32.3468 15.5396 32.1078C15.5396 32.1078 15.7289 30.9312 15.9403 30.9184C16.1517 30.9055 16.2878 31.0746 16.2878 31.0746L17.7548 28.8226L17.753 28.8263Z" fill="#C7D75E"/>
<path d="M12.8684 35.371C12.7709 35.3765 11.8591 36.0549 11.8591 36.0549C11.8591 36.0549 11.4087 34.8654 10.7432 34.9555C10.0777 35.0456 8.58119 36.577 8.58119 36.577C8.58119 36.577 8.0407 36.5586 7.86053 36.7571C7.68037 36.9557 7.66199 37.2314 7.73368 37.3822C7.80538 37.5311 8.48927 38.5036 8.72459 38.4319C8.95806 38.3602 8.95806 38.2885 8.95806 38.2885C8.95806 38.2885 9.31839 38.6489 9.60702 38.522C9.89565 38.3952 10.1291 38.215 10.1291 38.215C10.1291 38.215 10.5795 38.6121 11.3002 38.4485C12.0209 38.2867 14.3832 37.202 14.5082 37.0605C14.6332 36.9189 15.1737 36.4887 14.5965 36.1633C14.021 35.8379 13.2268 35.3508 12.8684 35.3691V35.371Z" fill="#F9BE9D"/>
<path d="M10.6293 35.9721C10.6293 35.9721 10.6293 36.0512 10.5447 36.1504C10.5061 36.2001 10.4473 36.2552 10.4142 36.3361C10.3811 36.417 10.4013 36.5181 10.44 36.6248C10.5227 36.838 10.5925 37.1101 10.5833 37.4171C10.5778 37.5679 10.5374 37.7462 10.4013 37.862C10.3352 37.919 10.2469 37.9576 10.1532 37.9539C10.0594 37.9502 9.973 37.9006 9.90682 37.8399C9.43986 37.2939 9.35529 36.5806 9.5281 36.1486C9.60716 35.9298 9.72665 35.7791 9.81857 35.689C9.86453 35.6449 9.90498 35.6136 9.93255 35.5952C9.96013 35.5769 9.97668 35.5677 9.97668 35.5695C9.98035 35.5732 9.92152 35.6136 9.83328 35.7055C9.74687 35.7975 9.63657 35.9482 9.56487 36.1633C9.4895 36.3747 9.4656 36.6505 9.52627 36.9428C9.55568 37.088 9.60532 37.2388 9.67518 37.384C9.74687 37.5292 9.82409 37.6837 9.94358 37.7995C10.0043 37.8565 10.0778 37.8969 10.155 37.9006C10.2322 37.9043 10.3076 37.873 10.3646 37.8234C10.4859 37.7223 10.5245 37.5623 10.5319 37.4171C10.5429 37.1193 10.4804 36.8527 10.4032 36.6395C10.3664 36.5328 10.3444 36.417 10.3848 36.3269C10.4252 36.2387 10.4878 36.1872 10.5282 36.1394C10.6183 36.0475 10.6256 35.9721 10.6293 35.974V35.9721Z" fill="#F3986E"/>
<path d="M11.2434 37.9962C11.2434 37.9962 11.2195 37.9668 11.1938 37.9006C11.168 37.8363 11.1368 37.737 11.1313 37.6083C11.1257 37.4815 11.146 37.3215 11.225 37.1653C11.3022 37.009 11.4383 36.8546 11.624 36.7571L11.6387 36.8068C11.4861 36.8251 11.3206 36.8123 11.1588 36.7608C11.032 36.7204 10.9143 36.6597 10.8132 36.5825C10.7636 36.542 10.7176 36.4906 10.6974 36.4262C10.6772 36.3619 10.6919 36.292 10.7195 36.2387C10.7764 36.1284 10.8794 36.064 10.975 36.0273C11.0724 35.9887 11.168 35.9758 11.2563 35.974C11.4309 35.9703 11.567 36.0052 11.6607 36.0273C11.7526 36.0512 11.8041 36.0677 11.8023 36.0714C11.8023 36.0751 11.749 36.0659 11.6552 36.0475C11.5614 36.031 11.4254 36.0034 11.2563 36.0107C11.1735 36.0162 11.0816 36.031 10.9915 36.0677C10.9033 36.1045 10.8132 36.1652 10.7654 36.2589C10.7415 36.3049 10.7323 36.3582 10.747 36.4078C10.7617 36.4575 10.8003 36.4997 10.8463 36.5365C10.9401 36.6082 11.054 36.667 11.1735 36.7057C11.3261 36.7553 11.4861 36.7663 11.6295 36.7516L11.7729 36.7369L11.646 36.8031C11.4695 36.895 11.339 37.0384 11.2636 37.1855C11.1864 37.3325 11.1625 37.4833 11.1625 37.6065C11.168 37.8565 11.2526 37.9907 11.2416 37.9944L11.2434 37.9962Z" fill="#F3986E"/>
<path d="M12.8703 37.8124C12.8593 37.8124 12.8629 37.6929 12.8298 37.5035C12.7986 37.3142 12.7195 37.0586 12.5706 36.8068C12.4199 36.5567 12.2324 36.3655 12.0816 36.2479C11.9309 36.1302 11.8242 36.0751 11.8279 36.0659C11.8279 36.0622 11.8573 36.0732 11.907 36.0971C11.9566 36.1192 12.0246 36.1596 12.1055 36.2166C12.1864 36.2718 12.2746 36.349 12.3647 36.4428C12.453 36.5383 12.5412 36.6505 12.6184 36.7792C12.6938 36.9079 12.7508 37.0402 12.7931 37.1616C12.8317 37.2847 12.8574 37.3987 12.8685 37.4962C12.8795 37.5936 12.8832 37.6726 12.8795 37.7278C12.8776 37.783 12.874 37.8124 12.8703 37.8124Z" fill="#F3986E"/>
<path d="M9.26891 38.4981C9.26891 38.4981 9.2395 38.4852 9.1917 38.4521C9.1439 38.4191 9.07772 38.3694 9.0005 38.3014C8.84608 38.1672 8.64385 37.9539 8.517 37.6598C8.39199 37.3638 8.39934 37.0586 8.46369 36.8619C8.49494 36.7627 8.53539 36.6873 8.56848 36.6395C8.60157 36.5917 8.62363 36.5696 8.62731 36.5715C8.6365 36.577 8.55193 36.6762 8.5023 36.873C8.44898 37.066 8.44898 37.3565 8.56848 37.6377C8.68981 37.9208 8.88285 38.1304 9.02808 38.272C9.17515 38.4117 9.27443 38.4908 9.26891 38.4963V38.4981Z" fill="#F3986E"/>
<path d="M9.53532 37.3399C9.54636 37.3307 9.7063 37.5256 9.82028 37.8142C9.9361 38.101 9.95448 38.3529 9.93977 38.3547C9.92323 38.3566 9.88095 38.1139 9.7688 37.8344C9.6585 37.555 9.52062 37.3491 9.53532 37.3399Z" fill="#F3986E"/>
<path d="M19.7293 24.8718C19.744 24.8718 19.9407 26.9842 20.1668 29.5929C20.393 32.2016 20.5658 34.3176 20.5492 34.3194C20.5345 34.3194 20.3378 32.2071 20.1117 29.5984C19.8856 26.9897 19.7128 24.8737 19.7293 24.8718Z" fill="#263239"/>
<path d="M34.499 24.5593C34.499 24.5593 34.5027 24.5906 34.5045 24.6513C34.5045 24.7156 34.5064 24.8038 34.5082 24.9123C34.5119 25.1384 34.5082 25.4675 34.5009 25.8738C34.4862 26.6845 34.4329 27.806 34.3556 29.0414C34.2784 30.2768 34.2086 31.3964 34.1736 32.2071C34.1553 32.6116 34.1424 32.9406 34.1369 33.1668C34.1332 33.2771 34.1295 33.3635 34.1258 33.4278C34.1222 33.4866 34.1203 33.5179 34.1185 33.5179C34.1166 33.5179 34.1148 33.4866 34.1148 33.426C34.1148 33.3616 34.1148 33.2734 34.1148 33.1649C34.1148 32.9388 34.1222 32.6097 34.135 32.2034C34.1589 31.3927 34.2233 30.2731 34.3005 29.0359C34.3777 27.8004 34.4365 26.6809 34.4623 25.8701C34.4751 25.4657 34.4843 25.1366 34.4862 24.9105C34.488 24.8002 34.4917 24.7138 34.4917 24.6494C34.4935 24.5906 34.4954 24.5575 34.4972 24.5575L34.499 24.5593Z" fill="#263239"/>
<path d="M32.032 36.9115C32.032 36.9115 32.032 36.8968 32.0394 36.8693C32.0449 36.838 32.0541 36.7976 32.0633 36.7461C32.0817 36.6358 32.1037 36.474 32.1313 36.2644C32.1846 35.8434 32.2582 35.2368 32.3427 34.483C32.5119 32.9774 32.7325 30.8963 32.9715 28.5983C33.0358 27.9714 33.0983 27.361 33.159 26.7746C33.1737 26.6275 33.1884 26.4823 33.2031 26.3407C33.2105 26.269 33.216 26.1991 33.2233 26.1293V26.1035C33.2233 26.1035 33.227 26.1146 33.2325 26.1164C33.2344 26.1183 33.238 26.1219 33.2399 26.1219C33.2417 26.1219 33.238 26.1219 33.2362 26.1219C33.2233 26.1256 33.2068 26.133 33.1921 26.1403C33.1608 26.155 33.1314 26.1716 33.102 26.19C32.863 26.3352 32.6405 26.4933 32.4255 26.6477L32.3115 26.7286L32.3905 26.6128C32.5909 26.3186 32.7839 26.0282 32.92 25.734C32.9347 25.6973 32.9512 25.6587 32.9604 25.6219C32.9715 25.5833 32.9733 25.5539 32.9549 25.5208C32.92 25.4528 32.874 25.3866 32.8317 25.3222C32.7435 25.1935 32.6534 25.0704 32.567 24.9527C32.2159 24.4784 31.8978 24.0721 31.6368 23.7338C31.3757 23.3974 31.1698 23.1327 31.0264 22.947C30.9584 22.8569 30.9051 22.7871 30.8665 22.7374C30.8499 22.7154 30.8371 22.697 30.826 22.6823C30.8168 22.6694 30.8132 22.6639 30.8132 22.662C30.8132 22.662 30.8187 22.6676 30.8279 22.6786C30.8389 22.6915 30.8536 22.7098 30.8702 22.7319C30.9088 22.7815 30.9658 22.8496 31.0356 22.9378C31.1809 23.1198 31.3923 23.3845 31.657 23.7155C31.9217 24.05 32.2435 24.4563 32.5964 24.9288C32.6847 25.0465 32.7748 25.1696 32.8648 25.2983C32.909 25.3645 32.9549 25.4289 32.9935 25.5024C33.0174 25.5392 33.0174 25.598 33.0046 25.6348C32.9954 25.677 32.9788 25.7156 32.9623 25.7542C32.8244 26.0576 32.6314 26.3462 32.431 26.644L32.396 26.6091C32.613 26.4547 32.8336 26.2947 33.0763 26.1477C33.1075 26.1293 33.1369 26.1127 33.17 26.0962C33.1866 26.0888 33.2031 26.0796 33.2252 26.0741C33.2325 26.0741 33.238 26.0723 33.2472 26.0741C33.2546 26.0741 33.2619 26.0778 33.2674 26.0833C33.273 26.0888 33.2785 26.1017 33.2785 26.1091V26.1366C33.2693 26.2083 33.2619 26.28 33.2564 26.3517C33.2417 26.4951 33.2288 26.6404 33.2141 26.7874C33.1553 27.3739 33.0928 27.9842 33.0285 28.6111C32.7895 30.9091 32.5633 32.9902 32.3832 34.494C32.2949 35.2459 32.214 35.8545 32.1552 36.2736C32.124 36.4832 32.0982 36.645 32.0762 36.7553C32.0633 36.8068 32.0541 36.849 32.0467 36.8785C32.0394 36.906 32.0357 36.9207 32.0339 36.9189L32.032 36.9115Z" fill="#263239"/>
<path d="M23.0017 36.906C23.0017 36.906 22.9962 36.8932 22.9907 36.8674C22.9833 36.838 22.9741 36.7994 22.9631 36.7498C22.9429 36.645 22.9208 36.4905 22.8895 36.2902C22.8362 35.8912 22.7645 35.3121 22.6873 34.5951C22.5292 33.163 22.3325 31.1812 22.1266 28.9917C22.0641 28.3115 22.0034 27.6515 21.9464 27.0246C21.9317 26.8683 21.9189 26.7121 21.906 26.5595C21.8986 26.4823 21.8931 26.4069 21.8858 26.3315L21.8821 26.2745V26.2598C21.8821 26.2598 21.8747 26.258 21.8858 26.2322C21.895 26.2157 21.917 26.2157 21.9207 26.2175C21.9299 26.2175 21.9354 26.2194 21.9409 26.2212C21.9832 26.2341 22.0145 26.2543 22.0476 26.2727C22.3049 26.4253 22.5384 26.5944 22.7627 26.7543L22.7278 26.7874C22.5494 26.5264 22.3858 26.2727 22.2535 26.0171C22.2204 25.9528 22.191 25.8885 22.1671 25.8204C22.1579 25.7855 22.145 25.7506 22.1468 25.7101C22.145 25.6899 22.1579 25.6734 22.1634 25.655C22.1689 25.6366 22.1781 25.6219 22.1873 25.6072C22.2553 25.4858 22.3325 25.3792 22.4042 25.2726C22.7002 24.8534 22.9741 24.4986 23.1984 24.2045C23.4227 23.914 23.601 23.686 23.7242 23.5261C23.7849 23.4507 23.8308 23.3919 23.8639 23.3478C23.8786 23.3294 23.8915 23.3147 23.9007 23.3018C23.9099 23.2926 23.9135 23.2871 23.9135 23.2871C23.9135 23.2871 23.9099 23.2926 23.9025 23.3037C23.8933 23.3165 23.8823 23.3312 23.8694 23.3515C23.8363 23.3956 23.7922 23.4562 23.7352 23.5335C23.6139 23.6952 23.4411 23.9269 23.2205 24.2192C22.9999 24.5152 22.7296 24.8718 22.4373 25.2928C22.3656 25.3976 22.2884 25.5079 22.224 25.6237C22.2149 25.6384 22.2075 25.6531 22.202 25.666C22.1983 25.6807 22.1854 25.6936 22.1891 25.7083C22.1891 25.7359 22.1983 25.7708 22.2075 25.8021C22.2296 25.8664 22.259 25.9307 22.2921 25.9932C22.4244 26.2451 22.5899 26.4988 22.7664 26.7562L22.8436 26.8702L22.7314 26.7911C22.5072 26.633 22.2737 26.4639 22.02 26.315C21.9887 26.2984 21.9538 26.2782 21.9244 26.269C21.9207 26.269 21.917 26.2672 21.917 26.2672C21.917 26.2672 21.917 26.2617 21.917 26.258C21.9189 26.2543 21.9097 26.2451 21.9152 26.2506C21.9152 26.2506 21.917 26.2506 21.9189 26.2506C21.9446 26.2506 21.9262 26.2506 21.9317 26.2506V26.2598V26.2745L21.9373 26.3297C21.9446 26.405 21.9501 26.4804 21.9575 26.5558C21.9722 26.7084 21.9851 26.8628 21.9998 27.0191C22.0586 27.646 22.1193 28.306 22.1818 28.9862C22.3877 31.1757 22.577 33.1575 22.7259 34.5896C22.7995 35.3066 22.8638 35.8857 22.9116 36.2865C22.9373 36.485 22.9576 36.6413 22.9741 36.7461C22.9833 36.7957 22.9907 36.8343 22.9962 36.8637C23.0017 36.8913 23.0035 36.9042 23.0017 36.9042V36.906Z" fill="#263239"/>
<path d="M33.2564 36.5165C36.1629 34.599 38.7128 32.2863 40.9354 29.6115C42.8308 29.856 45.2208 29.8174 47.7541 29.696L39.9059 36.5165H33.2564Z" fill="white"/>
<path d="M33.2564 36.5163C33.4329 36.5163 35.8596 36.5071 39.9059 36.4943L39.8912 36.4998C42.033 34.6356 44.7667 32.2586 47.7357 29.6756L47.7559 29.7234C47.7339 29.7234 47.7081 29.7252 47.6842 29.7271C46.4838 29.7841 45.3127 29.8227 44.1821 29.819C43.0514 29.8135 41.9613 29.7694 40.9318 29.637L40.9538 29.6278C38.9996 31.9754 37.0509 33.7091 35.6114 34.8323C34.8908 35.3967 34.3006 35.8159 33.8907 36.0953C33.6866 36.2369 33.5303 36.3343 33.4219 36.4078C33.3226 36.4722 33.2766 36.5034 33.2564 36.5163C33.3024 36.4851 33.488 36.3545 33.8833 36.0824C34.2896 35.7975 34.876 35.3765 35.593 34.8084C37.027 33.6778 38.9683 31.9424 40.9152 29.5947L40.9244 29.5837H40.9391C41.9649 29.716 43.0533 29.7583 44.1821 29.7638C45.3108 29.7675 46.4838 29.7289 47.6824 29.6719C47.7063 29.6719 47.732 29.6701 47.7541 29.6682L47.8331 29.6646L47.7725 29.716C44.7998 32.2972 42.0642 34.6706 39.9206 36.5329L39.9151 36.5384H39.9078C35.8614 36.5255 33.4347 36.5163 33.2582 36.5163H33.2564Z" fill="#263239"/>
<path d="M42.158 34.9849C42.158 34.9849 42.8529 34.7827 42.8805 34.6228C42.9099 34.4628 42.8805 34.1448 42.8805 34.1448C42.8805 34.1448 42.3455 33.5804 42.158 33.812C41.9705 34.0437 42.0128 34.2771 42.0863 34.3691L42.158 34.4628L41.7811 34.6651C41.7811 34.6651 40.509 34.4334 40.2203 34.5345C39.9317 34.6356 39.9593 34.9114 40.2203 35.0842C40.4814 35.257 41.1745 35.2442 41.1745 35.2442L41.2756 35.5181C41.2756 35.5181 39.2938 35.0989 39.1062 35.2442C38.9187 35.3894 38.904 35.621 39.2515 35.7644C39.2515 35.7644 39.1504 35.8508 39.3379 36.0383C39.5254 36.2259 39.6265 36.1983 39.6265 36.1983C39.6265 36.1983 39.0198 36.2994 39.1062 37.066C39.1062 37.066 39.0915 37.3693 39.8434 37.3841C40.5954 37.3988 41.4631 37.2388 41.6083 37.0219C41.7536 36.805 41.7811 36.5733 41.7811 36.5733C41.7811 36.5733 42.0845 36.5163 42.0698 36.1395L42.0551 35.7626C42.0551 35.7626 42.3161 35.6909 42.272 35.4592C42.2279 35.2276 42.1562 34.9813 42.1562 34.9813L42.158 34.9849Z" fill="#F9BE9D"/>
<path d="M40.4667 36.6707C40.4593 36.6836 40.259 36.588 40.0181 36.4575C39.7773 36.3269 39.5879 36.2093 39.5953 36.1964C39.6027 36.1835 39.803 36.2791 40.0439 36.4097C40.2847 36.5402 40.4741 36.6579 40.4667 36.6707Z" fill="#F3986E"/>
<path d="M41.1744 36.2259C41.1744 36.2259 41.0641 36.2001 40.8932 36.1505C40.7203 36.099 40.4814 36.031 40.2148 35.9667C39.9482 35.9023 39.7037 35.8545 39.5272 35.8214C39.3507 35.7883 39.2404 35.7699 39.2423 35.7608C39.2423 35.7534 39.3544 35.7608 39.5346 35.7828C39.7129 35.8049 39.9593 35.8472 40.2277 35.9115C40.4961 35.9758 40.7351 36.0512 40.9042 36.1119C41.0752 36.1726 41.1763 36.2185 41.1744 36.2259Z" fill="#F3986E"/>
<path d="M41.6929 35.6854C41.6837 35.6982 41.5863 35.6412 41.4576 35.599C41.3289 35.5548 41.2186 35.5401 41.2186 35.5236C41.2186 35.5089 41.3381 35.4978 41.476 35.5456C41.6139 35.5916 41.7021 35.6743 41.6929 35.6854Z" fill="#F3986E"/>
<path d="M41.7572 35.3453C41.7609 35.36 41.612 35.3967 41.4282 35.3673C41.2443 35.3397 41.1138 35.2589 41.1211 35.246C41.1285 35.2313 41.2627 35.2864 41.4374 35.3122C41.612 35.3397 41.7572 35.3287 41.7591 35.3453H41.7572Z" fill="#F3986E"/>
<path d="M42.1506 35.0382C42.1506 35.0382 42.1378 35.0014 42.1194 34.9481C42.101 34.8948 42.0642 34.8231 41.9999 34.7698C41.9355 34.7147 41.8602 34.6889 41.805 34.6797C41.7498 34.6705 41.7112 34.6724 41.7112 34.6632C41.7112 34.6558 41.7462 34.6393 41.8087 34.6393C41.8712 34.6393 41.9613 34.6613 42.0366 34.7257C42.112 34.79 42.1488 34.8764 42.158 34.9371C42.169 34.9996 42.158 35.0382 42.1506 35.0382Z" fill="#F3986E"/>
<path d="M42.5973 34.5842C42.6047 34.597 42.4668 34.643 42.3105 34.5768C42.1542 34.5125 42.0917 34.3819 42.1046 34.3783C42.1175 34.3691 42.1928 34.4702 42.3307 34.5272C42.4668 34.586 42.5936 34.5695 42.5955 34.586L42.5973 34.5842Z" fill="#F3986E"/>
<path d="M17.0066 32.5858C16.9882 32.5895 16.9276 32.2034 16.7051 31.7824C16.4882 31.3596 16.2051 31.0875 16.2198 31.0746C16.2235 31.0691 16.3007 31.1316 16.4055 31.2493C16.5103 31.3669 16.6426 31.5434 16.7548 31.7567C16.8669 31.9718 16.9349 32.1795 16.9699 32.3339C17.0048 32.4884 17.0121 32.5858 17.0066 32.5858Z" fill="#263239"/>
<path d="M18.2036 28.8648C18.2036 28.8648 18.2201 28.8961 18.2403 28.9586C18.2642 29.0284 18.2936 29.1167 18.3286 29.2233C18.4021 29.4494 18.5014 29.7693 18.6172 30.1444L18.5657 30.1517C18.562 29.9532 18.5528 29.7362 18.54 29.5119C18.5051 28.9659 18.4425 28.4751 18.3874 28.1203C18.3598 27.9511 18.3359 27.8096 18.3194 27.7011C18.3028 27.6018 18.2936 27.5467 18.2973 27.5467C18.301 27.5467 18.3157 27.6 18.3396 27.6974C18.3617 27.7949 18.3929 27.9383 18.426 28.1148C18.4922 28.4677 18.562 28.9604 18.5951 29.5101C18.6098 29.7362 18.6172 29.9532 18.619 30.1517V30.3392L18.5676 30.1591C18.4573 29.784 18.3635 29.4623 18.2992 29.2325C18.2697 29.1259 18.2458 29.0358 18.2256 28.9641C18.2091 28.9016 18.2017 28.8667 18.2054 28.8667L18.2036 28.8648Z" fill="#263239"/>
<path d="M14.3391 42.083H2.44458C2.17065 42.083 1.93718 41.8863 1.88938 41.6179L0.00868745 32.7458C-0.05198 32.402 0.212751 32.0858 0.563886 32.0858L12.5705 31.8688C12.8408 31.8688 13.0724 32.06 13.1239 32.3248L14.8943 41.4138C14.9623 41.7613 14.6957 42.0849 14.3409 42.0849L14.3391 42.083Z" fill="#455A64"/>
<path d="M19.4131 38.8308C19.4131 38.8308 19.3892 38.8474 19.3396 38.875C19.2863 38.9044 19.2146 38.943 19.1245 38.9908C18.9315 39.0919 18.6594 39.2316 18.3266 39.4063C17.6464 39.7537 16.7125 40.2299 15.683 40.7556C15.4017 40.899 15.1278 41.0369 14.8649 41.1693L14.8336 41.1858L14.8263 41.1509C14.648 40.2317 14.4917 39.4283 14.3796 38.8474C14.3262 38.5643 14.284 38.3345 14.2527 38.1708C14.2398 38.0955 14.2288 38.0348 14.2215 37.9888C14.2141 37.9466 14.2123 37.9263 14.2141 37.9245C14.2141 37.9245 14.2215 37.9447 14.2306 37.987C14.2417 38.033 14.2545 38.0918 14.2711 38.1672C14.306 38.3308 14.3538 38.5569 14.4127 38.84C14.5303 39.4191 14.6921 40.2207 14.8778 41.1399L14.8392 41.1215C15.1002 40.9891 15.3741 40.8494 15.6573 40.706C16.6904 40.1857 17.6262 39.7151 18.3082 39.3695C18.6447 39.2022 18.9186 39.068 19.1153 38.9706C19.2072 38.9264 19.2808 38.8915 19.3359 38.8639C19.3874 38.84 19.4131 38.829 19.415 38.8308H19.4131Z" fill="#263239"/>
<path d="M24.7023 36.9244C24.8273 36.6487 25.8586 34.3709 27.2485 31.3026C27.9581 29.7528 28.6162 28.3556 29.1126 27.3555C29.359 26.8537 29.5649 26.4529 29.7119 26.1753C29.7836 26.0411 29.8406 25.9345 29.8811 25.8591C29.8994 25.826 29.9142 25.7984 29.927 25.7782C29.9381 25.7598 29.9436 25.7506 29.9436 25.7506C29.9436 25.7506 29.9399 25.7616 29.9307 25.78C29.9197 25.8021 29.9068 25.8297 29.8903 25.8646C29.8517 25.9418 29.7983 26.0484 29.7303 26.1863C29.5906 26.4657 29.3884 26.8702 29.1475 27.3739C28.6622 28.3795 28.0096 29.7767 27.2999 31.3283C26.5922 32.8763 25.9505 34.2771 25.4836 35.2975C25.2483 35.8049 25.0552 36.213 24.921 36.4943C24.853 36.6321 24.7997 36.7406 24.7629 36.8178C24.7446 36.8528 24.7317 36.8803 24.7207 36.9005C24.7115 36.9189 24.7059 36.9281 24.7041 36.9281L24.7023 36.9244Z" fill="#263239"/>
<g opacity="0.3">
<path d="M19.9499 27.7931C19.9959 27.885 19.4848 33.7569 19.4848 33.7569L20.4665 32.6391L19.9499 27.7931Z" fill="black"/>
</g>
<g opacity="0.3">
<path d="M34.3797 28.1755L35.1922 34.3176L34.1168 33.4352L34.3797 28.1755Z" fill="black"/>
</g>
<path d="M14.5064 42.1381C14.5064 42.1381 14.5027 42.1308 14.499 42.1142C14.4935 42.094 14.488 42.0701 14.4806 42.0407C14.4641 41.9708 14.442 41.8752 14.4126 41.7557C14.3574 41.5076 14.2802 41.1472 14.1901 40.7023C14.0081 39.8107 13.7692 38.5771 13.5099 37.2149C12.997 34.5345 12.622 32.5729 12.5668 32.2769C12.5668 32.2769 12.5705 32.2843 12.5742 32.3008C12.5797 32.321 12.5852 32.3449 12.5926 32.3744C12.6091 32.4442 12.6312 32.5398 12.6606 32.6593C12.7157 32.9075 12.793 33.2678 12.883 33.7127C13.065 34.6043 13.304 35.8379 13.5632 37.202C14.0762 39.8824 14.4512 41.844 14.5064 42.1381Z" fill="#263239"/>
<path d="M7.67965 9.06317V7.52163H8.21859C8.32598 7.52163 8.41455 7.54019 8.4843 7.57733C8.55405 7.61396 8.60598 7.66339 8.64011 7.72561C8.67423 7.78733 8.69129 7.85583 8.69129 7.9311C8.69129 7.99734 8.6795 8.05203 8.65591 8.09519C8.63283 8.13834 8.60222 8.17247 8.56408 8.19756C8.52645 8.22265 8.48555 8.24121 8.44139 8.25326V8.26831C8.48856 8.27132 8.53598 8.28788 8.58365 8.31799C8.63133 8.3481 8.67122 8.39125 8.70333 8.44746C8.73545 8.50366 8.75151 8.57241 8.75151 8.6537C8.75151 8.73098 8.73394 8.80048 8.69882 8.8622C8.66369 8.92392 8.60824 8.97285 8.53247 9.00898C8.4567 9.04511 8.35809 9.06317 8.23666 9.06317H7.67965ZM7.86632 8.89758H8.23666C8.35859 8.89758 8.44516 8.87399 8.49634 8.82682C8.54803 8.77915 8.57387 8.72144 8.57387 8.6537C8.57387 8.60151 8.56057 8.55334 8.53398 8.50918C8.50738 8.46452 8.46949 8.42889 8.42032 8.40229C8.37114 8.3752 8.31293 8.36165 8.24569 8.36165H7.86632V8.89758ZM7.86632 8.19906H8.21257C8.26877 8.19906 8.31945 8.18802 8.36462 8.16594C8.41028 8.14386 8.44641 8.11275 8.47301 8.07261C8.5001 8.03246 8.51365 7.98529 8.51365 7.9311C8.51365 7.86336 8.49007 7.8059 8.4429 7.75873C8.39573 7.71106 8.32096 7.68722 8.21859 7.68722H7.86632V8.19906ZM10.3589 8.2924C10.3589 8.45498 10.3296 8.59549 10.2708 8.71392C10.2121 8.83234 10.1316 8.92367 10.0292 8.9879C9.92686 9.05213 9.80994 9.08425 9.67847 9.08425C9.54699 9.08425 9.43007 9.05213 9.32771 8.9879C9.22534 8.92367 9.1448 8.83234 9.08609 8.71392C9.02738 8.59549 8.99802 8.45498 8.99802 8.2924C8.99802 8.12981 9.02738 7.98931 9.08609 7.87088C9.1448 7.75246 9.22534 7.66113 9.32771 7.5969C9.43007 7.53267 9.54699 7.50055 9.67847 7.50055C9.80994 7.50055 9.92686 7.53267 10.0292 7.5969C10.1316 7.66113 10.2121 7.75246 10.2708 7.87088C10.3296 7.98931 10.3589 8.12981 10.3589 8.2924ZM10.1783 8.2924C10.1783 8.15892 10.1559 8.04626 10.1113 7.95443C10.0671 7.8626 10.0071 7.7931 9.93138 7.74593C9.85611 7.69876 9.7718 7.67518 9.67847 7.67518C9.58513 7.67518 9.50058 7.69876 9.4248 7.74593C9.34953 7.7931 9.28957 7.8626 9.24491 7.95443C9.20075 8.04626 9.17867 8.15892 9.17867 8.2924C9.17867 8.42588 9.20075 8.53853 9.24491 8.63036C9.28957 8.72219 9.34953 8.79169 9.4248 8.83886C9.50058 8.88603 9.58513 8.90962 9.67847 8.90962C9.7718 8.90962 9.85611 8.88603 9.93138 8.83886C10.0071 8.79169 10.0671 8.72219 10.1113 8.63036C10.1559 8.53853 10.1783 8.42588 10.1783 8.2924ZM10.6728 9.06317V7.52163H10.8595V8.89758H11.576V9.06317H10.6728ZM7.67965 12.0632V10.5216H8.61V10.6872H7.86632V11.2081H8.56183V11.3737H7.86632V11.8976H8.62204V12.0632H7.67965ZM8.86216 10.6872V10.5216H10.0183V10.6872H9.53357V12.0632H9.3469V10.6872H8.86216ZM11.5429 11.2924C11.5429 11.455 11.5136 11.5955 11.4549 11.7139C11.3961 11.8323 11.3156 11.9237 11.2132 11.9879C11.1109 12.0521 10.9939 12.0842 10.8625 12.0842C10.731 12.0842 10.6141 12.0521 10.5117 11.9879C10.4093 11.9237 10.3288 11.8323 10.2701 11.7139C10.2114 11.5955 10.182 11.455 10.182 11.2924C10.182 11.1298 10.2114 10.9893 10.2701 10.8709C10.3288 10.7525 10.4093 10.6611 10.5117 10.5969C10.6141 10.5327 10.731 10.5006 10.8625 10.5006C10.9939 10.5006 11.1109 10.5327 11.2132 10.5969C11.3156 10.6611 11.3961 10.7525 11.4549 10.8709C11.5136 10.9893 11.5429 11.1298 11.5429 11.2924ZM11.3623 11.2924C11.3623 11.1589 11.3399 11.0463 11.2953 10.9544C11.2511 10.8626 11.1912 10.7931 11.1154 10.7459C11.0401 10.6988 10.9558 10.6752 10.8625 10.6752C10.7691 10.6752 10.6846 10.6988 10.6088 10.7459C10.5335 10.7931 10.4736 10.8626 10.4289 10.9544C10.3848 11.0463 10.3627 11.1589 10.3627 11.2924C10.3627 11.4259 10.3848 11.5385 10.4289 11.6304C10.4736 11.7222 10.5335 11.7917 10.6088 11.8389C10.6846 11.886 10.7691 11.9096 10.8625 11.9096C10.9558 11.9096 11.0401 11.886 11.1154 11.8389C11.1912 11.7917 11.2511 11.7222 11.2953 11.6304C11.3399 11.5385 11.3623 11.4259 11.3623 11.2924Z" fill="#C7D75E"/>
</svg>
